<?xml version="1.0" encoding="UTF-8" standalone="no"?><!DOCTYPE svg PUBLIC "-//W3C//DTD SVG 1.1//EN" "http://www.w3.org/Graphics/SVG/1.1/DTD/svg11.dtd"><svg width="68px" height="69px" version="1.1" xmlns="http://www.w3.org/2000/svg" xmlns:xlink="http://www.w3.org/1999/xlink" xml:space="preserve" xmlns:serif="http://www.serif.com/" style="fill-rule:evenodd;clip-rule:evenodd;stroke-linejoin:round;stroke-miterlimit:2;"><g><g><path d="M0,11c0,-6.075 4.925,-11 11,-11l30,0c6.075,0 11,4.925 11,11l0,30c0,6.075 -4.925,11 -11,11l-30,0c-6.075,0 -11,-4.925 -11,-11l0,-30Z" style="fill:url(#_Linear1);fill-rule:nonzero;"/></g><g><path d="M51,62c0,-0.549 -0.451,-1 -1,-1l-3,0c-0.549,0 -1,0.451 -1,1l0,2c0,0.549 0.451,1 1,1l3,0c0.549,0 1,-0.451 1,-1l0,-2Zm0,-8c0,-0.549 -0.451,-1 -1,-1l-3,0c-0.549,0 -1,0.451 -1,1l0,2c0,0.549 0.451,1 1,1l3,0c0.549,0 1,-0.451 1,-1l0,-2Zm0,-8c0,-0.549 -0.451,-1 -1,-1l-3,0c-0.549,0 -1,0.451 -1,1l0,2c0,0.549 0.451,1 1,1l3,0c0.549,0 1,-0.451 1,-1l0,-2Zm0,-8c0,-0.549 -0.451,-1 -1,-1l-3,0c-0.549,0 -1,0.451 -1,1l0,2c0,0.549 0.451,1 1,1l3,0c0.549,0 1,-0.451 1,-1l0,-2Zm0,-8c0,-0.549 -0.451,-1 -1,-1l-3,0c-0.549,0 -1,0.451 -1,1l0,2c0,0.549 0.451,1 1,1l3,0c0.549,0 1,-0.451 1,-1l0,-2Zm-8,32c0,-0.549 -0.451,-1 -1,-1l-3,0c-0.549,0 -1,0.451 -1,1l0,2c0,0.549 0.451,1 1,1l3,0c0.549,0 1,-0.451 1,-1l0,-2Zm0,-8c0,-0.549 -0.451,-1 -1,-1l-3,0c-0.549,0 -1,0.451 -1,1l0,2c0,0.549 0.451,1 1,1l3,0c0.549,0 1,-0.451 1,-1l0,-2Zm0,-8c0,-0.549 -0.451,-1 -1,-1l-3,0c-0.549,0 -1,0.451 -1,1l0,2c0,0.549 0.451,1 1,1l3,0c0.549,0 1,-0.451 1,-1l0,-2Zm0,-8c0,-0.549 -0.451,-1 -1,-1l-3,0c-0.549,0 -1,0.451 -1,1l0,2c0,0.549 0.451,1 1,1l3,0c0.549,0 1,-0.451 1,-1l0,-2Zm0,-8c0,-0.549 -0.451,-1 -1,-1l-3,0c-0.549,0 -1,0.451 -1,1l0,2c0,0.549 0.451,1 1,1l3,0c0.549,0 1,-0.451 1,-1l0,-2Zm9,39l-15,0c-1.097,0 -2,-0.903 -2,-2l0,-40c0,-1.097 0.903,-2 2,-2l15,0c1.097,0 2,0.903 2,2l0,40c0,1.097 -0.903,2 -2,2Zm-29,-29c0,0.549 0.451,1 1,1l5,0c0.549,0 1,-0.451 1,-1l0,-2c0,-0.549 -0.451,-1 -1,-1l-5,0c-0.549,0 -1,0.451 -1,1l0,2Zm0,8c0,0.549 0.451,1 1,1l5,0c0.549,0 1,-0.451 1,-1l0,-2c0,-0.549 -0.451,-1 -1,-1l-5,0c-0.549,0 -1,0.451 -1,1l0,2Zm0,8c0,0.549 0.451,1 1,1l5,0c0.549,0 1,-0.451 1,-1l0,-2c0,-0.549 -0.451,-1 -1,-1l-5,0c-0.549,0 -1,0.451 -1,1l0,2Zm0,8c0,0.549 0.451,1 1,1l5,0c0.549,0 1,-0.451 1,-1l0,-2c0,-0.549 -0.451,-1 -1,-1l-5,0c-0.549,0 -1,0.451 -1,1l0,2Zm-3,3l0,-32c0,-1.097 0.903,-2 2,-2l9,0c1.097,0 2,0.903 2,2l0,32c0,1.097 -0.903,2 -2,2l-9,0c-1.097,0 -2,-0.903 -2,-2Zm44,-22l-4,0c-0.549,0 -1,0.451 -1,1l0,2c0,0.549 0.451,1 1,1l4,0c0.549,0 1,-0.451 1,-1l0,-2c0,-0.549 -0.451,-1 -1,-1Zm-5,11c0,0.549 0.451,1 1,1l4,0c0.549,0 1,-0.451 1,-1l0,-2c0,-0.549 -0.451,-1 -1,-1l-4,0c-0.549,0 -1,0.451 -1,1l0,2Zm0,8c0,0.549 0.451,1 1,1l4,0c0.549,0 1,-0.451 1,-1l0,-2c0,-0.549 -0.451,-1 -1,-1l-4,0c-0.549,0 -1,0.451 -1,1l0,2Zm7,-25l0,2c1.097,0 2,0.903 2,2l0,24c0,1.097 -0.903,2 -2,2l-8,0c-1.097,0 -2,-0.903 -2,-2l0,-24c0,-1.097 0.903,-2 2,-2l0,-2c0,-1.097 0.903,-2 2,-2l1.426,-9.506c0.041,-0.284 0.287,-0.497 0.574,-0.497c0.287,0 0.533,0.213 0.574,0.497l1.426,9.506c1.097,0 2,0.903 2,2Z" style="fill:#fff;fill-rule:nonzero;"/></g></g><defs><linearGradient id="_Linear1" x1="0" y1="0" x2="1" y2="0" gradientUnits="userSpaceOnUse" gradientTransform="matrix(29.34,19.94,-19.94,29.34,15.46,17.42)"><stop offset="0" style="stop-color:#6dff86;stop-opacity:1"/><stop offset="1" style="stop-color:#91afff;stop-opacity:1"/></linearGradient></defs></svg>