<?xml version="1.0" encoding="UTF-8" standalone="no"?><!DOCTYPE svg PUBLIC "-//W3C//DTD SVG 1.1//EN" "http://www.w3.org/Graphics/SVG/1.1/DTD/svg11.dtd"><svg width="78px" height="81px" version="1.1" xmlns="http://www.w3.org/2000/svg" xmlns:xlink="http://www.w3.org/1999/xlink" xml:space="preserve" xmlns:serif="http://www.serif.com/" style="fill-rule:evenodd;clip-rule:evenodd;stroke-linejoin:round;stroke-miterlimit:2;"><g><g><path d="M36.879,1.523c1.163,-1.163 3.079,-1.163 4.242,0l35.356,35.356c1.163,1.163 1.163,3.079 -0,4.242l-35.356,35.356c-1.163,1.163 -3.079,1.163 -4.242,-0l-35.356,-35.356c-1.163,-1.163 -1.163,-3.079 0,-4.242l35.356,-35.356Z" style="fill:url(#_Linear1);fill-rule:nonzero;"/></g><g><path d="M61.529,56.8c0.395,0.396 0.395,1.046 0,1.442l-4.087,4.084c-0.398,0.394 -1.05,0.393 -1.447,-0.002c-0.192,-0.191 -0.3,-0.451 -0.3,-0.722c0,-0.271 0.108,-0.531 0.3,-0.722l4.087,-4.083c0.398,-0.395 1.05,-0.394 1.447,0.002l-0,0.001Zm10.471,-3.37c-0,0.563 -0.458,1.023 -1.022,1.023l-20.435,-0c-0,0 -0.001,0 -0.001,0c-0.56,0 -1.02,-0.46 -1.021,-1.02c-0.003,-2.547 1.746,-4.787 4.218,-5.4l3.067,-0.766l0.15,-0.6c-0.754,-0.869 -1.274,-1.916 -1.51,-3.042c-0.615,-0.258 -1.047,-0.826 -1.13,-1.488l-0.224,-1.775c-0.092,-0.733 0.25,-1.456 0.875,-1.85c-0.06,-0.526 -0.118,-1.156 -0.118,-1.493c0,-1.71 0.494,-3.973 4.7,-4.12c1.426,-0.894 2.895,-0.894 3.545,-0.894c2.21,-0 3.31,0.974 3.848,1.792c1.128,1.722 0.417,2.916 -0.11,3.475l-0.188,0.188l-0.051,1.081c0.598,0.399 0.92,1.103 0.83,1.816l-0.221,1.776c-0.08,0.625 -0.463,1.172 -1.024,1.46c-0.24,1.176 -0.791,2.266 -1.594,3.158l0.129,0.51l3.067,0.765c2.475,0.614 4.225,2.855 4.22,5.405l0,-0.001Zm-35.417,8.895l-4.087,-4.084c-0.191,-0.191 -0.299,-0.451 -0.299,-0.722c0,-0.56 0.461,-1.021 1.021,-1.021c0.271,0 0.532,0.108 0.723,0.3l4.087,4.083c0.191,0.191 0.299,0.451 0.299,0.722c-0,0.56 -0.461,1.021 -1.021,1.021c-0.271,0 -0.532,-0.107 -0.723,-0.299Zm21.16,17.651c0,0.564 -0.459,1.023 -1.023,1.023l-20.435,-0c-0.56,0 -1.021,-0.46 -1.022,-1.02c-0.002,-2.548 1.746,-4.787 4.218,-5.403l3.067,-0.765l0.15,-0.6c-0.754,-0.871 -1.274,-1.92 -1.51,-3.047c-0.615,-0.258 -1.046,-0.827 -1.13,-1.488l-0.221,-1.776c-0.095,-0.733 0.247,-1.457 0.872,-1.85c-0.059,-0.527 -0.118,-1.157 -0.118,-1.494c0,-1.711 0.494,-3.975 4.7,-4.122c1.426,-0.894 2.896,-0.894 3.545,-0.894c2.21,-0 3.315,0.973 3.848,1.792c1.126,1.723 0.415,2.917 -0.112,3.477l-0.186,0.186l-0.051,1.084c0.597,0.4 0.918,1.106 0.828,1.819l-0.221,1.776c-0.079,0.625 -0.462,1.172 -1.022,1.46c-0.241,1.177 -0.792,2.269 -1.596,3.162l0.129,0.513l3.067,0.765c2.472,0.617 4.221,2.854 4.222,5.402l0.001,-0Zm-13.286,-25.52l-20.435,-0c-0.56,0 -1.02,-0.459 -1.022,-1.019c0,-2.547 1.748,-4.785 4.22,-5.402l3.065,-0.766l0.151,-0.6c-0.754,-0.871 -1.274,-1.919 -1.51,-3.046c-0.616,-0.257 -1.048,-0.827 -1.13,-1.489l-0.22,-1.776c-0.093,-0.732 0.248,-1.454 0.872,-1.847c-0.06,-0.527 -0.118,-1.158 -0.118,-1.495c0,-1.71 0.494,-3.975 4.7,-4.122c1.426,-0.894 2.895,-0.894 3.545,-0.894c2.21,-0 3.315,0.974 3.848,1.793c1.128,1.723 0.415,2.917 -0.11,3.476l-0.186,0.186l-0.051,1.084c0.597,0.401 0.918,1.107 0.828,1.82l-0.221,1.775c-0.079,0.625 -0.462,1.172 -1.022,1.46c-0.241,1.178 -0.792,2.27 -1.596,3.163l0.127,0.512l3.067,0.768c2.472,0.615 4.221,2.853 4.22,5.4c0,0.563 -0.458,1.02 -1.022,1.02l-0,-0.001Z" style="fill:#fff;fill-rule:nonzero;"/></g></g><defs><linearGradient id="_Linear1" x1="0" y1="0" x2="1" y2="0" gradientUnits="userSpaceOnUse" gradientTransform="matrix(7.15592,37.5332,-37.5332,7.15592,37.508,24.4407)"><stop offset="0" style="stop-color:#6dff86;stop-opacity:1"/><stop offset="1" style="stop-color:#91afff;stop-opacity:1"/></linearGradient></defs></svg>