<?xml version="1.0" encoding="UTF-8" standalone="no"?><!DOCTYPE svg PUBLIC "-//W3C//DTD SVG 1.1//EN" "http://www.w3.org/Graphics/SVG/1.1/DTD/svg11.dtd"><svg width="65px" height="70px" version="1.1" xmlns="http://www.w3.org/2000/svg" xmlns:xlink="http://www.w3.org/1999/xlink" xml:space="preserve" xmlns:serif="http://www.serif.com/" style="fill-rule:evenodd;clip-rule:evenodd;stroke-miterlimit:20;"><g><g><path d="M0,27c0,-14.912 12.088,-27 27,-27c14.912,0 27,12.088 27,27c0,14.912 -12.088,27 -27,27c-14.912,0 -27,-12.088 -27,-27Z" style="fill:url(#_Linear1);fill-rule:nonzero;"/></g><g><path d="M23,25.396c6.019,0.008 11.882,-1.932 16.709,-5.527c0.742,-0.627 1.84,-0.627 2.582,0c4.836,3.578 10.693,5.516 16.709,5.527c1.097,0 2,0.903 2,2c0,22.06 -5.933,34.35 -19.236,39.849c-0.49,0.201 -1.039,0.201 -1.528,0c-13.303,-5.5 -19.236,-17.79 -19.236,-39.849c0,-1.097 0.903,-2 2,-2Z" style="fill:none;fill-rule:nonzero;stroke:#fff;stroke-width:4px;"/></g></g><defs><linearGradient id="_Linear1" x1="0" y1="0" x2="1" y2="0" gradientUnits="userSpaceOnUse" gradientTransform="matrix(30.47,20.71,-20.71,30.47,16.06,18.09)"><stop offset="0" style="stop-color:#6dff86;stop-opacity:1"/><stop offset="1" style="stop-color:#91afff;stop-opacity:1"/></linearGradient></defs></svg>