<?xml version="1.0" standalone="no"?>
<!DOCTYPE svg PUBLIC "-//W3C//DTD SVG 20010904//EN"
 "http://www.w3.org/TR/2001/REC-SVG-20010904/DTD/svg10.dtd">
<svg version="1.0" xmlns="http://www.w3.org/2000/svg"
 width="202.000000pt" height="202.000000pt" viewBox="0 0 202.000000 202.000000"
 preserveAspectRatio="xMidYMid meet">
<metadata>
Created by potrace 1.14, written by Peter Selinger 2001-2017
</metadata>
<g transform="translate(0.000000,202.000000) scale(0.100000,-0.100000)"
fill="#000000" stroke="none">
<path d="M827 2006 c-32 -7 -60 -13 -62 -14 -3 -1 -21 -4 -40 -8 -19 -3 -38
-10 -41 -15 -3 -5 -12 -9 -21 -9 -46 0 -323 -172 -323 -201 0 -11 449 -464
451 -455 1 3 2 9 3 14 1 4 8 34 15 67 21 101 81 212 150 278 l61 58 -15 35
c-17 42 -24 101 -15 134 6 24 8 23 27 -20 30 -63 87 -116 151 -140 30 -12 68
-30 83 -41 39 -27 69 -95 69 -155 0 -67 -11 -80 -35 -43 -64 94 -214 67 -215
-40 0 -25 12 -50 41 -90 81 -109 51 -122 316 142 l233 232 -38 38 c-100 103
-282 194 -467 232 -61 13 -270 13 -328 1z"/>
<path d="M1608 1574 c-65 -64 -118 -121 -118 -128 0 -14 79 -126 89 -126 5 0
64 53 132 119 140 134 136 118 53 209 l-39 42 -117 -116z"/>
<path d="M226 1615 c-25 -31 -46 -60 -46 -64 0 -7 118 -122 226 -223 l29 -27
44 65 44 64 -49 46 c-27 26 -83 80 -125 121 l-77 74 -46 -56z"/>
<path d="M1748 1342 l-127 -127 16 -85 c8 -47 18 -88 22 -92 4 -4 71 57 150
136 l144 144 -29 76 c-16 42 -33 76 -39 76 -5 0 -67 -58 -137 -128z"/>
<path d="M96 1396 c-14 -37 -26 -73 -26 -80 0 -13 260 -277 280 -284 4 -2 11
12 15 30 3 18 11 57 17 87 l12 53 -100 96 c-54 52 -115 110 -135 129 l-36 34
-27 -65z"/>
<path d="M1379 1353 c-22 -25 -351 -345 -371 -361 -14 -11 -31 1 -125 91 -59
58 -148 143 -198 190 l-89 85 -24 -31 c-76 -102 -112 -215 -107 -342 3 -109
30 -199 83 -281 43 -66 145 -164 170 -164 9 1 78 59 151 130 74 72 138 130
142 130 3 0 66 -58 140 -130 74 -71 142 -130 151 -130 25 0 126 97 169 163 58
89 82 174 83 287 1 134 -30 229 -107 338 -33 46 -45 51 -68 25z"/>
<path d="M1813 1038 c-158 -159 -163 -165 -187 -236 -38 -111 -81 -179 -171
-267 l-81 -81 45 -43 c25 -24 80 -77 122 -117 42 -41 81 -74 87 -74 15 0 123
106 171 169 102 132 173 297 199 461 8 53 8 264 -1 300 -3 14 -6 31 -6 38 -1
6 -4 12 -9 12 -4 0 -80 -73 -169 -162z"/>
<path d="M26 1167 c-15 -49 -15 -262 -1 -337 42 -215 136 -395 281 -538 41
-39 79 -72 86 -72 6 0 65 53 131 119 l120 118 -74 71 c-85 80 -148 179 -177
276 -16 53 -29 75 -69 112 -26 26 -97 95 -158 153 -60 59 -115 110 -121 114
-7 4 -15 -3 -18 -16z"/>
<path d="M853 517 c-81 -79 -200 -193 -263 -254 l-114 -111 72 -36 73 -37 66
63 c37 35 74 70 83 78 9 8 67 64 128 124 61 59 115 106 121 105 5 -2 91 -83
191 -179 100 -96 188 -176 195 -178 7 -2 42 11 76 29 l63 31 -119 116 c-66 63
-184 177 -263 253 -78 77 -147 139 -152 139 -5 0 -76 -64 -157 -143z"/>
<path d="M873 178 c-73 -73 -129 -135 -125 -139 4 -4 45 -14 92 -23 83 -14
278 -15 345 -1 65 13 105 26 105 33 0 11 -259 256 -273 260 -7 1 -72 -57 -144
-130z"/>
</g>
</svg>
