<?xml version="1.0" encoding="UTF-8" standalone="no"?><!DOCTYPE svg PUBLIC "-//W3C//DTD SVG 1.1//EN" "http://www.w3.org/Graphics/SVG/1.1/DTD/svg11.dtd"><svg width="32px" height="32px" version="1.1" xmlns="http://www.w3.org/2000/svg" xmlns:xlink="http://www.w3.org/1999/xlink" xml:space="preserve" xmlns:serif="http://www.serif.com/" style="fill-rule:evenodd;clip-rule:evenodd;stroke-linejoin:round;stroke-miterlimit:2;"><g><g><path d="M17.092,32l-15.326,0c-0.976,0 -1.766,-0.79 -1.766,-1.766l0,-28.468c0,-0.975 0.79,-1.766 1.766,-1.766l28.468,-0c0.975,-0 1.766,0.79 1.766,1.766l0,28.468c0,0.975 -0.79,1.766 -1.766,1.766l-8.154,0l-0,-12.392l4.159,0l0.623,-4.83l-4.782,0l-0,-3.083c-0,-1.398 0.388,-2.351 2.393,-2.351l2.557,-0.001l-0,-4.32c-0.442,-0.058 -1.96,-0.19 -3.726,-0.19c-3.687,0 -6.212,2.25 -6.212,6.384l-0,3.561l-4.17,0l-0,4.83l4.17,0l-0,12.392Z" style="fill:#fff;fill-rule:nonzero;"/></g></g></svg>