<?xml version="1.0" encoding="UTF-8" standalone="no"?><!DOCTYPE svg PUBLIC "-//W3C//DTD SVG 1.1//EN" "http://www.w3.org/Graphics/SVG/1.1/DTD/svg11.dtd"><svg width="32px" height="32px" version="1.1" xmlns="http://www.w3.org/2000/svg" xmlns:xlink="http://www.w3.org/1999/xlink" xml:space="preserve" xmlns:serif="http://www.serif.com/" style="fill-rule:evenodd;clip-rule:evenodd;stroke-linejoin:round;stroke-miterlimit:2;"><g><g><path d="M21.24,23.335c-0.193,0.878 -0.716,1.09 -1.445,0.678l-4.003,-2.948l-1.93,1.858c-0.213,0.212 -0.393,0.393 -0.807,0.393l0.284,-4.07l7.418,-6.698c0.322,-0.283 -0.071,-0.445 -0.497,-0.16l-9.167,5.767l-3.95,-1.232c-0.86,-0.271 -0.879,-0.858 0.18,-1.271l15.435,-5.949c0.716,-0.258 1.342,0.174 1.11,1.258l-2.628,12.374Zm-5.24,-23.335c-8.839,0 -16,7.161 -16,16c0,8.839 7.161,16 16,16c8.839,0 16,-7.161 16,-16c0,-8.839 -7.161,-16 -16,-16Z" style="fill:#fff;fill-rule:nonzero;"/></g></g></svg>