<svg xmlns="http://www.w3.org/2000/svg" width="192" height="64" viewBox="0 0 192 64"><defs><clipPath id="h450a"><path d="M0 .06h191.462v63.936H0z"/></clipPath></defs><g><g><g><g/><g clip-path="url(#h450a)"><path fill="#fff" d="M176.214 0H15.256c-.587 0-1.166 0-1.752.003-.49.003-.976.013-1.47.021C10.968.05 9.89.115 8.827.306c-1.07.188-2.065.508-3.041 1.003a10.31 10.31 0 0 0-2.59 1.886c-.766.759-1.4 1.637-1.886 2.594a10.6 10.6 0 0 0-1 3.045c-.192 1.06-.259 2.132-.286 3.203-.014.491-.016.984-.024 1.473V50.494c.008.496.01.978.024 1.474.027 1.072.094 2.144.286 3.203a10.572 10.572 0 0 0 1 3.048 9.973 9.973 0 0 0 1.887 2.583c.757.764 1.632 1.4 2.589 1.886.976.5 1.97.816 3.041 1.01 1.064.19 2.141.252 3.207.281.494.011.98.018 1.47.018.586.003 1.165.003 1.752.003h160.958c.578 0 1.16 0 1.735-.003.49 0 .989-.007 1.477-.018 1.072-.029 2.147-.091 3.2-.281a10.922 10.922 0 0 0 3.052-1.01 10.097 10.097 0 0 0 2.59-1.886c.76-.752 1.394-1.63 1.887-2.583.491-.971.811-1.976.99-3.048.199-1.059.26-2.131.3-3.203.005-.496.005-.978.005-1.474.012-.582.012-1.16.012-1.75V15.258c0-.586 0-1.167-.012-1.748 0-.49 0-.982-.005-1.473-.04-1.07-.101-2.143-.3-3.203-.179-1.07-.499-2.07-.99-3.045a10.37 10.37 0 0 0-1.888-2.594 10.369 10.369 0 0 0-2.589-1.886 10.907 10.907 0 0 0-3.052-1.003c-1.053-.19-2.128-.256-3.2-.282-.488-.008-.988-.018-1.477-.02C177.374 0 176.792 0 176.214 0"/></g></g><g><path fill="#000001" d="M13.515 62.6c-.488 0-.963-.006-1.446-.018-.896-.024-1.957-.075-2.992-.26a9.384 9.384 0 0 1-2.65-.877 8.598 8.598 0 0 1-2.235-1.626 8.527 8.527 0 0 1-1.634-2.235 9.203 9.203 0 0 1-.868-2.651c-.196-1.077-.245-2.168-.266-3-.011-.338-.024-1.461-.024-1.461V13.51s.014-1.105.024-1.43c.02-.838.07-1.93.264-2.995a9.16 9.16 0 0 1 .87-2.66A8.54 8.54 0 0 1 4.182 4.19a8.908 8.908 0 0 1 2.244-1.637 9.31 9.31 0 0 1 2.644-.87c1.079-.192 2.17-.242 3.002-.263l1.443-.019h164.429l1.46.02c.822.02 1.914.07 2.975.26a9.54 9.54 0 0 1 2.674.877c.82.42 1.571.97 2.225 1.625a8.855 8.855 0 0 1 1.639 2.247c.413.817.693 1.685.857 2.638.184 1.01.242 2.047.277 3.02.005.452.005.94.005 1.423.014.6.014 1.172.014 1.748v33.486c0 .58 0 1.149-.014 1.72 0 .52 0 .997-.006 1.488-.034.942-.092 1.978-.274 2.965a9.202 9.202 0 0 1-.864 2.672 8.76 8.76 0 0 1-1.624 2.217 8.694 8.694 0 0 1-2.238 1.636 9.375 9.375 0 0 1-2.67.88c-1.025.185-2.086.236-2.991.26-.467.012-.96.018-1.437.018l-1.734.003L13.515 62.6"/></g><g><path fill="#fff" d="M39.99 31.827c-.04-4.576 3.748-6.803 3.92-6.907-2.143-3.13-5.471-3.557-6.64-3.59-2.793-.293-5.502 1.672-6.926 1.672-1.45 0-3.643-1.643-6.004-1.595-3.039.048-5.882 1.806-7.442 4.539-3.218 5.571-.818 13.76 2.264 18.262 1.542 2.205 3.346 4.669 5.704 4.581 2.307-.094 3.17-1.472 5.955-1.472 2.76 0 3.57 1.472 5.976 1.416 2.475-.038 4.037-2.214 5.525-4.44 1.78-2.528 2.498-5.018 2.525-5.146-.056-.019-4.81-1.832-4.856-7.32"/></g><g><path fill="#fff" d="M35.448 18.368c1.241-1.554 2.09-3.664 1.854-5.808-1.797.078-4.043 1.242-5.338 2.762-1.144 1.337-2.166 3.53-1.902 5.592 2.018.15 4.091-1.018 5.386-2.546"/></g><g><path fill="#fff" d="M60.106 43.42l-1.818 5.369H55.08l7.173-19.869h3.333l7.174 19.869h-3.264l-1.816-5.37zm.785-2.49h6.003l-2.96-8.704h-.083z"/></g><g><path fill="#fff" d="M82.21 48.949c-2.064 0-3.704-.923-4.558-2.535h-.07v7.175H74.61V34.31h2.878v2.41h.055c.825-1.554 2.589-2.56 4.613-2.56 3.676 0 6.099 2.906 6.099 7.395 0 4.501-2.41 7.394-6.045 7.394zm2.989-7.389c0-2.936-1.515-4.866-3.829-4.866-2.27 0-3.798 1.97-3.798 4.866 0 2.922 1.528 4.879 3.798 4.879 2.314 0 3.829-1.917 3.829-4.879z"/></g><g><path fill="#fff" d="M98.15 48.949c-2.064 0-3.704-.923-4.558-2.535h-.07v7.175H90.55V34.31h2.878v2.41h.055c.825-1.554 2.589-2.56 4.613-2.56 3.675 0 6.099 2.906 6.099 7.395 0 4.501-2.41 7.394-6.045 7.394zm2.987-7.389c0-2.936-1.515-4.866-3.827-4.866-2.27 0-3.798 1.97-3.798 4.866 0 2.922 1.527 4.879 3.798 4.879 2.312 0 3.827-1.917 3.827-4.879z"/></g><g><path fill="#fff" d="M114.735 43.254c.219 1.971 2.134 3.264 4.749 3.264 2.507 0 4.31-1.293 4.31-3.07 0-1.543-1.088-2.466-3.664-3.098l-2.574-.62c-3.648-.882-5.343-2.588-5.343-5.358 0-3.427 2.989-5.782 7.229-5.782 4.2 0 7.078 2.355 7.174 5.782h-3.001c-.18-1.982-1.818-3.179-4.213-3.179-2.397 0-4.035 1.211-4.035 2.973 0 1.405 1.046 2.232 3.608 2.866l2.189.536c4.076.964 5.77 2.601 5.77 5.508 0 3.717-2.96 6.045-7.67 6.045-4.406 0-7.382-2.273-7.574-5.867h3.045"/></g><g><path fill="#fff" d="M133.353 30.88v3.427h2.755v2.355h-2.755v7.986c0 1.242.552 1.82 1.763 1.82.302 0 .786-.042.978-.07v2.341c-.33.083-.99.138-1.652.138-2.932 0-4.076-1.103-4.076-3.91v-8.305h-2.106v-2.355h2.106V30.88h2.987"/></g><g><path fill="#fff" d="M144.57 34.13c4.2 0 6.872 2.864 6.872 7.422 0 4.57-2.657 7.421-6.872 7.421-4.212 0-6.87-2.851-6.87-7.42 0-4.559 2.685-7.423 6.87-7.423zm3.842 7.422c0-3.126-1.432-4.972-3.842-4.972s-3.841 1.859-3.841 4.972c0 3.14 1.432 4.97 3.841 4.97 2.41 0 3.842-1.83 3.842-4.97z"/></g><g><path fill="#fff" d="M153.9 34.31h2.835v2.466h.07c.455-1.638 1.777-2.616 3.484-2.616.427 0 .784.056 1.019.11v2.781c-.235-.096-.758-.179-1.336-.179-1.914 0-3.098 1.296-3.098 3.333v8.592H153.9V34.31"/></g><g><path fill="#fff" d="M168.78 48.973c-4.214 0-6.83-2.822-6.83-7.352 0-4.544 2.63-7.491 6.706-7.491 4.008 0 6.528 2.754 6.528 7.146v1.019h-10.232v.179c0 2.478 1.556 4.102 3.897 4.102 1.651 0 2.947-.784 3.346-2.036h2.822c-.4 2.63-2.96 4.433-6.237 4.433zm-3.814-8.757h7.242c-.07-2.217-1.487-3.676-3.552-3.676-2.052 0-3.538 1.488-3.69 3.676z"/></g><g><path fill="#fff" d="M65.01 18.714c0 3.05-1.647 4.803-4.492 4.803H57.07V13.97h3.448c2.832 0 4.493 1.74 4.493 4.744zm-6.457 3.453h1.8c1.997 0 3.147-1.243 3.147-3.434 0-2.157-1.17-3.414-3.147-3.414h-1.8z"/></g><g><path fill="#fff" d="M70.09 16.17c2.098 0 3.395 1.416 3.395 3.738 0 2.336-1.291 3.745-3.395 3.745-2.11 0-3.4-1.41-3.4-3.745 0-2.322 1.296-3.738 3.4-3.738zm1.935 3.738c0-1.561-.703-2.472-1.935-2.472-1.238 0-1.933.911-1.933 2.472 0 1.573.695 2.48 1.933 2.48 1.232 0 1.935-.913 1.935-2.48z"/></g><g><path fill="#fff" d="M82.516 23.515h-1.475l-1.488-5.307h-.113l-1.482 5.307h-1.46L74.51 16.31h1.443l1.29 5.498h.107l1.482-5.498h1.363l1.481 5.498h.112l1.285-5.498h1.423l-1.98 7.205"/></g><g><path fill="#fff" d="M86.17 16.31h1.368v1.143h.106c.35-.8 1.065-1.283 2.15-1.283 1.608 0 2.494.965 2.494 2.68v4.664h-1.422v-4.307c0-1.159-.502-1.735-1.555-1.735-1.051 0-1.72.703-1.72 1.826v4.216H86.17v-7.205"/></g><g><path fill="#fff" d="M94.549 23.518h1.422V13.5H94.55z"/></g><g><path fill="#fff" d="M101.35 16.17c2.098 0 3.395 1.416 3.395 3.738 0 2.336-1.291 3.745-3.395 3.745-2.11 0-3.4-1.41-3.4-3.745 0-2.322 1.296-3.738 3.4-3.738zm1.935 3.738c0-1.561-.703-2.472-1.935-2.472-1.238 0-1.933.911-1.933 2.472 0 1.573.695 2.48 1.933 2.48 1.232 0 1.935-.913 1.935-2.48z"/></g><g><path fill="#fff" d="M108.92 19.325l1.95-.112v-.622c0-.76-.502-1.19-1.473-1.19-.794 0-1.344.29-1.503.8h-1.376c.146-1.237 1.31-2.031 2.944-2.031 1.807 0 2.824.9 2.824 2.42v4.924h-1.368v-1.013h-.113c-.429.722-1.216 1.131-2.163 1.131-1.39 0-2.402-.84-2.402-2.156 0-1.296.965-2.045 2.68-2.15zm1.95 1.54v-.602l-1.758.112c-.992.067-1.442.404-1.442 1.037 0 .646.562 1.022 1.335 1.022 1.072 0 1.865-.68 1.865-1.57z"/></g><g><path fill="#fff" d="M117.15 16.193c.988 0 1.82.47 2.21 1.264h.107V13.5h1.421v10.018h-1.362v-1.14h-.113c-.429.79-1.27 1.258-2.263 1.258-1.832 0-2.99-1.442-2.99-3.725 0-2.277 1.171-3.718 2.99-3.718zm-1.523 3.718c0 1.528.72 2.448 1.927 2.448 1.2 0 1.94-.933 1.94-2.441 0-1.501-.749-2.448-1.94-2.448-1.199 0-1.927.926-1.927 2.441z"/></g><g><path fill="#fff" d="M130.17 16.17c2.098 0 3.395 1.416 3.395 3.738 0 2.336-1.291 3.745-3.395 3.745-2.109 0-3.4-1.41-3.4-3.745 0-2.322 1.298-3.738 3.4-3.738zm1.935 3.738c0-1.561-.703-2.472-1.935-2.472-1.238 0-1.933.911-1.933 2.472 0 1.573.695 2.48 1.933 2.48 1.232 0 1.935-.913 1.935-2.48z"/></g><g><path fill="#fff" d="M135.47 16.31h1.368v1.143h.106c.35-.8 1.065-1.283 2.15-1.283 1.608 0 2.494.965 2.494 2.68v4.664h-1.422v-4.307c0-1.159-.502-1.735-1.555-1.735-1.051 0-1.72.703-1.72 1.826v4.216h-1.421v-7.205"/></g><g><path fill="#fff" d="M149.626 14.52v1.826h1.562v1.198h-1.562v3.704c0 .755.312 1.086 1.02 1.086.219 0 .344-.014.542-.033v1.184a4.58 4.58 0 0 1-.774.073c-1.581 0-2.21-.556-2.21-1.945v-4.069h-1.144v-1.198h1.144V14.52h1.422"/></g><g><path fill="#fff" d="M153.13 13.5h1.41v3.97h.112c.348-.807 1.11-1.29 2.196-1.29 1.535 0 2.482.973 2.482 2.686v4.652h-1.424v-4.301c0-1.15-.536-1.735-1.54-1.735-1.166 0-1.815.736-1.815 1.828v4.208h-1.421V13.5"/></g><g><path fill="#fff" d="M164.498 23.653c-2.064 0-3.328-1.416-3.328-3.72 0-2.302 1.291-3.763 3.322-3.763 2.004 0 3.214 1.37 3.214 3.632v.496h-5.088v.08c.048 1.262.782 2.064 1.918 2.064.863 0 1.452-.312 1.716-.874h1.368c-.324 1.292-1.476 2.085-3.122 2.085zm-1.882-4.412h3.644c-.033-1.127-.722-1.86-1.776-1.86-1.053 0-1.788.74-1.868 1.86z"/></g></g></g></svg>