<?xml version="1.0" encoding="UTF-8" standalone="no"?>
<svg
   xmlns:dc="http://purl.org/dc/elements/1.1/"
   xmlns:cc="http://creativecommons.org/ns#"
   xmlns:rdf="http://www.w3.org/1999/02/22-rdf-syntax-ns#"
   xmlns:svg="http://www.w3.org/2000/svg"
   xmlns="http://www.w3.org/2000/svg"
   xmlns:xlink="http://www.w3.org/1999/xlink"
   xmlns:sodipodi="http://sodipodi.sourceforge.net/DTD/sodipodi-0.dtd"
   xmlns:inkscape="http://www.inkscape.org/namespaces/inkscape"
   width="211px"
   height="67px"
   viewBox="0 0 211 67"
   version="1.1"
   id="svg21"
   sodipodi:docname="img-enter-app.svg"
   inkscape:version="1.0.2 (1.0.2+r75+1)">
  <metadata
     id="metadata25">
    <rdf:RDF>
      <cc:Work
         rdf:about="">
        <dc:format>image/svg+xml</dc:format>
        <dc:type
           rdf:resource="http://purl.org/dc/dcmitype/StillImage" />
      </cc:Work>
    </rdf:RDF>
  </metadata>
  <sodipodi:namedview
     pagecolor="#ffffff"
     bordercolor="#666666"
     borderopacity="1"
     objecttolerance="10"
     gridtolerance="10"
     guidetolerance="10"
     inkscape:pageopacity="0"
     inkscape:pageshadow="2"
     inkscape:window-width="1920"
     inkscape:window-height="1025"
     id="namedview23"
     showgrid="false"
     inkscape:zoom="4.2124798"
     inkscape:cx="103.64115"
     inkscape:cy="71.010763"
     inkscape:window-x="0"
     inkscape:window-y="27"
     inkscape:window-maximized="1"
     inkscape:current-layer="svg21"
     inkscape:document-rotation="0" />
  <title
     id="title2">BittrexButton</title>
  <defs
     id="defs9">
    <linearGradient
       x1="29.7357383%"
       y1="48.4386243%"
       x2="86.1631498%"
       y2="52.0688999%"
       id="linearGradient-1">
      <stop
         stop-color="#6DFF86"
         offset="0%"
         id="stop4"
         style="stop-color:#fef301;stop-opacity:1" />
      <stop
         stop-color="#91AFFF"
         offset="100%"
         id="stop6"
         style="stop-color:#cd7604;stop-opacity:1" />
    </linearGradient>
    <linearGradient
       inkscape:collect="always"
       xlink:href="#linearGradient-1"
       id="linearGradient850"
       x1="34.446827"
       y1="55.242304"
       x2="100.87797"
       y2="59.516172"
       gradientTransform="matrix(1.7837652,0,0,0.56061191,1.3968,1.4)"
       gradientUnits="userSpaceOnUse" />
    <filter
       inkscape:collect="always"
       style="color-interpolation-filters:sRGB"
       id="filter908"
       x="-0.1098202"
       width="1.2196404"
       y="-0.1098202"
       height="1.2196404">
      <feGaussianBlur
         inkscape:collect="always"
         stdDeviation="2.2297264"
         id="feGaussianBlur910" />
    </filter>
  </defs>
  <path
     d="m 14.753223,65.396654 c -0.537997,0 -1.061882,-0.0067 -1.594587,-0.01841 C 12.17084,65.353153 11.001359,65.299613 9.8601011,65.105532 8.7841082,64.921489 7.8280621,64.620328 6.9390451,64.188665 6.0182775,63.746962 5.1909977,63.174757 4.4748451,62.48878 3.7445811,61.807822 3.1430835,61.02815 2.67388,60.151438 2.2170241,59.306515 1.9048097,58.399686 1.71607,57.379086 1.5008714,56.25308 1.4461898,55.112015 1.4232588,54.241995 1.4109114,53.888968 1.3968,52.714441 1.3968,52.714441 V 14.063808 c 0,0 0.015875,-1.156122 0.026459,-1.495764 0.022931,-0.876713 0.077613,-2.017777 0.2910473,-3.132072 C 1.9030458,8.4086793 2.2152601,7.5018509 2.67388,6.6552546 3.1413195,5.7768692 3.7428172,4.9921782 4.4642616,4.3162397 5.1927616,3.62357 6.0235692,3.0496915 6.9372812,2.6046429 7.8439374,2.1679598 8.7982196,1.8701454 9.8530454,1.6944683 11.041929,1.4936944 12.244925,1.4418279 13.162164,1.4200774 L 14.753223,1.4 H 196.02803 l 1.61046,0.021751 c 0.90489,0.020077 2.10965,0.071944 3.27913,0.2710446 1.06188,0.1773503 2.02499,0.4768379 2.94752,0.9168671 0.90489,0.4400293 1.73217,1.0139078 2.45361,1.699885 0.72498,0.6792848 1.32647,1.4689951 1.80626,2.3490537 0.45509,0.8549618 0.76378,1.7617902 0.94546,2.7589668 0.20285,1.0557353 0.26636,2.1399143 0.30516,3.1571683 0.005,0.473492 0.005,0.983792 0.005,1.489072 0.0162,0.627419 0.0162,1.224721 0.0162,1.827042 v 35.016627 c 0,0.60734 0,1.201296 -0.0159,1.798598 0,0.543763 0,1.042351 -0.007,1.555998 -0.037,0.985464 -0.10055,2.06797 -0.30163,3.100282 -0.18345,1.025619 -0.49214,1.932448 -0.95252,2.794102 -0.4745,0.87002 -1.07952,1.654711 -1.79038,2.318938 -0.73027,0.699362 -1.55754,1.269894 -2.46773,1.709923 -0.91724,0.441703 -1.85035,0.734498 -2.94399,0.920214 -1.12891,0.194081 -2.29839,0.247621 -3.29677,0.272717 -0.51506,0.01171 -1.05835,0.01841 -1.584,0.01841 L 194.12476,65.4 14.753223,65.396654"
     id="Fill-4-Copy"
     style="fill:#000001;fill-opacity:0.6;fill-rule:evenodd;stroke:url(#linearGradient850);stroke-width:2" />
  <circle
     style="opacity:0.67479624;fill:#f29800;fill-opacity:1;stroke:none;stroke-width:100.001;stroke-linecap:square;stroke-linejoin:round;paint-order:markers stroke fill;filter:url(#filter908)"
     id="path876"
     cx="33.396801"
     cy="33.5"
     r="24.364113" />
  <g
     id="g2950"
     transform="matrix(0.23324791,0,0,0.23324791,-917.16442,502.79597)"
     style="stroke-width:16.2039">
    <g
       id="g2689-3-7"
       inkscape:export-filename="/home/grigoris/workspaces/CoreWebGit/phoinix-network/img/phoenix.png"
       inkscape:export-xdpi="46.102879"
       inkscape:export-ydpi="46.102879"
       transform="matrix(1.6129478,0,0,1.6129478,-2225.512,264.11189)"
       style="fill:#f4e549;fill-opacity:1;stroke-width:10.0461">
      <g
         id="g28-9-3-6-7"
         transform="matrix(0.35277777,0,0,-0.35277777,3905.9134,-1449.2683)"
         style="fill:#f4e549;fill-opacity:1;stroke-width:10.0461">
        <path
           d="m 0,0 c 2.881,2.337 3.514,3.822 1.571,7.133 -4.823,8.218 -5.297,17 -2.205,26.545 C 1.197,29.496 2.491,25.636 4.479,22.174 9.809,12.89 17.69,6.678 28.067,3.752 c 17.647,-4.977 26.831,-23.671 19.759,-41.849 -4.043,7.655 -9.102,13.087 -17.395,14.333 -6.652,0.999 -12.378,-0.52 -16.638,-6.155 -4.153,-5.495 -4.787,-11.735 -1.037,-17.04 5.097,-7.21 10.321,-14.887 17.005,-20.428 L 102.95,5.803 C 102.676,6.081 102.41,6.364 102.133,6.64 45.27,63.503 -46.515,64.145 -104.176,8.582 l 71.723,-71.723 c 2.533,17.754 7.117,34.95 18.312,49.502 C -10.184,-8.495 -5.076,-4.118 0,0"
           style="fill:#f4e549;fill-opacity:1;fill-rule:nonzero;stroke:none;stroke-width:10.0461"
           id="path30-1-6-7-1" />
      </g>
      <g
         id="g32-2-7-5-1"
         transform="matrix(0.35277777,0,0,-0.35277777,3960.1611,-1422.0049)"
         style="fill:#f4e549;fill-opacity:1;stroke-width:10.0461">
        <path
           d="m 0,0 c 2.664,-13.977 4.359,-27.337 3.361,-40.877 -1.354,-18.358 -5.179,-36.141 -12.573,-53.124 -9.56,-21.957 -23.304,-40.772 -41.404,-56.413 -5.632,-4.866 -5.743,-4.871 -11.076,0.241 -11.429,10.956 -22.788,21.983 -34.353,33.151 4.509,3.851 9.041,7.392 13.195,11.332 14.707,13.947 24.398,30.772 28.954,50.607 0.582,2.534 2.608,4.993 4.531,6.923 15.488,15.542 31.109,30.953 46.711,46.384 C -2.076,-1.204 -1.284,-0.847 0,0"
           style="fill:#f4e549;fill-opacity:1;fill-rule:nonzero;stroke:none;stroke-width:10.0461"
           id="path34-7-5-3-5" />
      </g>
      <g
         id="g36-0-3-56-9"
         transform="matrix(0.35277777,0,0,-0.35277777,3852.5004,-1421.5539)"
         style="fill:#f4e549;fill-opacity:1;stroke-width:10.0461">
        <path
           d="m 0,0 c 9.738,-9.319 18.721,-17.899 27.686,-26.5 7.84,-7.523 15.711,-15.015 23.44,-22.652 1.42,-1.403 2.796,-3.303 3.218,-5.192 3.859,-17.295 12.005,-32.34 23.989,-45.216 5.345,-5.742 11.534,-10.7 17.04,-15.739 -3.72,-3.997 -7.546,-8.396 -11.679,-12.486 -8.218,-8.134 -16.635,-16.066 -24.891,-24.162 -1.523,-1.493 -2.41,-1.708 -4.253,-0.204 -22.522,18.387 -38.852,41.265 -48.525,68.572 -8.421,23.769 -11.511,48.322 -7.433,73.482 C -0.918,-7.075 -0.558,-4.032 0,0"
           style="fill:#f4e549;fill-opacity:1;fill-rule:nonzero;stroke:none;stroke-width:10.0461"
           id="path38-9-5-2-7" />
      </g>
      <g
         id="g40-3-6-9-7"
         transform="matrix(0.35277777,0,0,-0.35277777,3935.8285,-1363.9179)"
         style="fill:#f4e549;fill-opacity:1;stroke-width:10.0461">
        <path
           d="m 0,0 c -7.241,-3.685 -13.734,-7.088 -20.355,-10.222 -0.769,-0.364 -2.533,0.47 -3.352,1.254 -18.496,17.708 -36.922,35.488 -55.367,53.249 -1.044,1.005 -2.131,1.964 -3.435,3.162 -7.908,-7.578 -15.711,-15.031 -23.488,-22.511 -11.809,-11.36 -23.577,-22.763 -35.443,-34.063 -0.94,-0.896 -2.874,-1.941 -3.722,-1.553 -7.094,3.247 -14.042,6.814 -21.708,10.619 28.267,27.297 55.684,53.775 83.432,80.571 C -55.738,53.78 -28.3,27.306 0,0"
           style="fill:#f4e549;fill-opacity:1;fill-rule:nonzero;stroke:none;stroke-width:10.0461"
           id="path42-6-2-1-6" />
      </g>
      <g
         id="g44-0-9-2-7"
         transform="matrix(0.35277777,0,0,-0.35277777,3891.3561,-1357.6348)"
         style="fill:#f4e549;fill-opacity:1;stroke-width:10.0461">
        <path
           d="m 0,0 c 5.417,5.817 10.52,11.634 15.985,17.088 8.383,8.368 17.034,16.466 25.521,24.731 1.305,1.271 2.106,2.045 3.862,0.333 C 59.147,28.723 73.04,15.41 86.887,2.051 87.043,1.9 87.054,1.599 87.374,0.659 58.095,-8.071 28.963,-7.993 0,0"
           style="fill:#f4e549;fill-opacity:1;fill-rule:nonzero;stroke:none;stroke-width:10.0461"
           id="path46-6-1-7-3" />
      </g>
      <g
         id="g48-2-2-0-6"
         transform="matrix(0.35277777,0,0,-0.35277777,3954.7876,-1436.9191)"
         style="fill:#f4e549;fill-opacity:1;stroke-width:10.0461">
        <path
           d="m 0,0 c 3.461,-8.128 6.791,-15.654 9.763,-23.32 0.356,-0.919 -0.965,-2.871 -1.974,-3.878 -12.249,-12.216 -24.611,-24.319 -36.873,-36.521 -2.127,-2.116 -3.928,-4.558 -6.351,-7.402 -0.736,1.726 -0.993,2.12 -1.074,2.548 -1.527,8.101 -2.98,16.217 -4.581,24.303 -0.439,2.214 -0.323,3.793 1.514,5.58 12.447,12.112 24.726,24.397 37.068,36.617 C -1.991,-1.56 -1.385,-1.138 0,0"
           style="fill:#f4e549;fill-opacity:1;fill-rule:nonzero;stroke:none;stroke-width:10.0461"
           id="path50-6-7-93-5" />
      </g>
      <g
         id="g52-1-0-60-6"
         transform="matrix(0.35277777,0,0,-0.35277777,3857.5847,-1436.0883)"
         style="fill:#f4e549;fill-opacity:1;stroke-width:10.0461">
        <path
           d="m 0,0 c 7.054,-6.758 13.312,-12.738 19.552,-18.736 6.923,-6.655 13.782,-13.377 20.776,-19.954 1.679,-1.58 1.782,-2.825 1.218,-5.098 -1.57,-6.327 -2.528,-12.807 -3.684,-19.234 -0.294,-1.636 -0.424,-3.301 -0.697,-5.493 -1.218,0.8 -1.976,1.149 -2.544,1.694 -13.993,13.436 -27.989,26.868 -41.889,40.399 -0.959,0.934 -1.97,2.926 -1.604,3.933 C -6.198,-15.142 -3.177,-7.921 0,0"
           style="fill:#f4e549;fill-opacity:1;fill-rule:nonzero;stroke:none;stroke-width:10.0461"
           id="path54-8-9-6-3" />
      </g>
      <g
         id="g56-7-3-2-9"
         transform="matrix(0.35277777,0,0,-0.35277777,3937.6666,-1427.8441)"
         style="fill:#f4e549;fill-opacity:1;stroke-width:10.0461">
        <path
           d="m 0,0 c -3.586,4.985 -7.081,9.842 -10.573,14.701 -0.07,0.098 -0.085,0.238 -0.16,0.332 -4.915,6.132 -4.946,6.164 0.431,11.409 10.343,10.09 20.768,20.097 31.051,30.247 1.893,1.869 2.979,2.382 4.87,-0.055 3.91,-5.039 8.142,-9.83 12.248,-14.717 1.74,-2.071 1.479,-4.045 -0.367,-5.839 C 25.406,24.323 13.293,12.589 1.178,0.856 0.847,0.536 0.428,0.307 0,0"
           style="fill:#f4e549;fill-opacity:1;fill-rule:nonzero;stroke:none;stroke-width:10.0461"
           id="path58-9-6-6-4" />
      </g>
      <g
         id="g60-2-0-1-8"
         transform="matrix(0.35277777,0,0,-0.35277777,3874.6977,-1427.2023)"
         style="fill:#f4e549;fill-opacity:1;stroke-width:10.0461">
        <path
           d="m 0,0 c -7.958,7.625 -15.887,15.295 -23.902,22.875 -4.721,4.464 -9.678,8.683 -14.285,13.257 -0.895,0.889 -1.441,3.486 -0.826,4.32 4.287,5.811 8.922,11.365 13.636,17.239 9.826,-9.417 19.294,-18.49 28.762,-27.562 2.765,-2.649 5.459,-5.378 8.326,-7.912 1.955,-1.727 2.479,-2.77 0.438,-5.25 C 7.795,11.676 4.112,5.834 0,0"
           style="fill:#f4e549;fill-opacity:1;fill-rule:nonzero;stroke:none;stroke-width:10.0461"
           id="path62-0-6-87-1" />
      </g>
      <g
         id="g64-2-2-9-2"
         transform="matrix(0.35277777,0,0,-0.35277777,3935.8854,-1417.0056)"
         style="fill:#f4e549;fill-opacity:1;stroke-width:10.0461">
        <path
           d="m 0,0 c -3.35,15.414 -10.591,28.806 -21.675,40.583 -0.89,-0.701 -1.499,-1.097 -2.01,-1.594 -19.888,-19.348 -39.791,-38.682 -59.607,-58.105 -1.752,-1.717 -2.907,-2.272 -4.868,-0.382 -14.811,14.274 -29.688,28.48 -44.542,42.708 -5.015,4.803 -10.025,9.609 -14.934,14.315 -0.648,-0.37 -0.891,-0.459 -1.066,-0.62 -0.272,-0.25 -0.509,-0.54 -0.742,-0.828 -17.337,-21.405 -23.333,-45.704 -17.701,-72.583 4.77,-22.765 17.26,-40.522 36.611,-53.5 1.921,-1.289 2.899,-1.005 4.334,0.396 9.613,9.383 19.288,18.704 28.919,28.069 3.963,3.853 7.817,7.82 11.851,11.597 0.467,0.437 1.56,0.726 2.287,0.664 l 0.066,0.053 c 0.15,0 1.148,-0.449 1.648,-0.949 0.276,-0.276 3.699,-3.668 6.695,-6.637 0.152,-0.137 0.308,-0.283 0.47,-0.444 9.891,-9.777 19.917,-19.417 29.895,-29.106 5.467,-5.308 5.567,-5.447 11.728,-0.864 C -5.17,-66.789 7.192,-33.092 0,0"
           style="fill:#f4e549;fill-opacity:1;fill-rule:nonzero;stroke:none;stroke-width:10.0461"
           id="path66-3-6-2-9" />
      </g>
    </g>
    <g
       id="g64-2-2-4-5-3"
       transform="matrix(0.56901213,0,0,-0.56901213,4122.7806,-2021.3484)"
       style="fill:#e4b92d;fill-opacity:1;stroke-width:10.0461">
      <path
         id="path66-3-6-7-9-9"
         style="fill:#e4b92d;fill-opacity:1;fill-rule:nonzero;stroke:none;stroke-width:21.6051"
         d="m 13950.26,-7913.1934 a 374.11818,378.9985 0 0 1 18.301,117.0801 374.11818,378.9985 0 0 1 -2.637,44.9004 l 90.689,-90.6894 c -0.589,-0.5979 -1.162,-1.2053 -1.758,-1.7989 -30.873,-30.8737 -66.537,-54.0309 -104.595,-69.4922 z m 128.383,89.0489 c -1.602,0.1231 -3.203,1.4023 -5.239,3.4121 -22.114,21.8285 -44.533,43.3512 -66.777,65.0508 -11.564,11.2798 -11.498,11.3477 -0.928,24.5351 0.162,0.2022 0.193,0.5041 0.344,0.7149 7.51,10.4497 15.026,20.8945 22.738,31.6152 0.921,-0.6602 1.822,-1.1536 2.533,-1.8418 26.055,-25.233 52.106,-50.4678 78.116,-75.748 3.97,-3.8582 4.531,-8.1028 0.789,-12.5567 -8.831,-10.51 -17.931,-20.8135 -26.34,-31.6504 -2.033,-2.6205 -3.635,-3.6544 -5.236,-3.5312 z m 54.511,70.0058 c -2.978,2.4474 -4.28,3.3538 -5.392,4.4571 -26.543,26.2803 -52.951,52.7019 -79.719,78.75 -3.951,3.8431 -4.2,7.2385 -3.256,12 3.443,17.3897 6.568,34.8436 9.852,52.2656 0.174,0.9204 0.727,1.7666 2.31,5.4785 5.211,-6.1163 9.084,-11.3673 13.658,-15.918 26.371,-26.2416 52.957,-52.2693 79.299,-78.541 2.17,-2.1656 5.01,-6.3634 4.244,-8.3398 -6.391,-16.4865 -13.552,-32.6723 -20.996,-50.1524 z m -161.845,34.1172 c -1.914,1.5076 -3.224,2.3609 -4.323,3.4297 -2.877,2.7989 -5.753,5.5978 -8.631,8.3965 a 374.11818,378.9985 0 0 1 -109.191,189.666 c 2.832,2.8074 4.44,4.4043 8.037,7.9688 0.327,0.2946 0.662,0.6088 1.01,0.955 21.271,21.0264 42.834,41.7566 64.293,62.5938 11.757,11.4154 11.973,11.7155 25.223,1.8594 59.079,-43.9539 85.664,-116.4223 70.197,-187.5899 -7.205,-33.1493 -22.778,-61.9517 -46.615,-87.2793 z m 194.603,56.8027 c -2.761,1.8216 -4.464,2.5883 -5.707,3.8184 -33.554,33.1859 -67.149,66.3293 -100.457,99.7539 -4.136,4.1507 -8.492,9.4391 -9.744,14.8887 -9.798,42.6571 -30.641,78.8396 -62.27,108.834 -8.933,8.4733 -18.68,16.0891 -28.377,24.3711 24.872,24.0178 49.302,47.7329 73.881,71.2949 11.469,10.9938 11.708,10.9824 23.821,0.5176 38.925,-33.6375 68.483,-74.0997 89.043,-121.3203 15.901,-36.5236 24.127,-74.7694 27.039,-114.25 2.146,-29.1191 -1.5,-57.8494 -7.229,-87.9083 z m -327.777,180.9727 c -59.675,57.6274 -118.637,114.5705 -179.428,173.2754 16.487,8.183 31.427,15.8529 46.684,22.8359 1.823,0.8345 5.984,-1.4129 8.005,-3.3398 25.519,-24.3018 50.827,-48.8231 76.223,-73.2539 16.725,-16.0865 33.507,-32.1149 50.514,-48.4121 2.804,2.5764 5.141,4.6375 7.387,6.7988 39.667,38.1968 79.294,76.4348 119.072,114.5176 1.761,1.686 5.555,3.4801 7.209,2.6972 14.239,-6.7399 28.203,-14.0594 43.775,-21.9843 -60.862,-58.7242 -119.87,-115.6579 -179.441,-173.1348 z m -71.381,22.5391 a 374.11818,378.9985 0 0 1 -35.541,16.3574 c 1.963,1.4133 3.95,2.8097 5.984,4.1738 4.132,2.7721 6.234,2.1614 9.321,-0.8515 6.733,-6.572 13.482,-13.1282 20.236,-19.6797 z m -72.658,28.8984 a 374.11818,378.9985 0 0 1 -99.655,13.6953 374.11818,378.9985 0 0 1 -43.068,-2.5215 c 19.709,32.6165 44.967,61.4228 75.535,86.3789 3.964,3.2345 5.871,2.7734 9.147,-0.4375 17.755,-17.4112 35.857,-34.4699 53.531,-51.9628 8.888,-8.796 17.115,-18.2557 25.115,-26.8516 -6.603,-6.0433 -13.658,-12.0432 -20.605,-18.3008 z m 145.898,67.2285 c -1.451,0.1 -2.687,1.2984 -4.265,2.836 -18.253,17.7746 -36.859,35.1913 -54.887,53.1875 -11.753,11.7293 -22.727,24.238 -34.377,36.748 62.288,17.1897 124.939,17.3587 187.906,-1.416 -0.688,-2.0216 -0.711,-2.6694 -1.047,-2.9942 -29.779,-28.7298 -59.658,-57.3598 -89.291,-86.2402 -1.652,-1.6108 -2.91,-2.1987 -4.039,-2.1211 z"
         transform="matrix(0.46498716,0,0,-0.46498716,-6518.1544,-3549.1275)" />
    </g>
  </g>
  <text
     xml:space="preserve"
     style="font-size:64px;line-height:1.25;font-family:'Maven Pro';-inkscape-font-specification:'Maven Pro';letter-spacing:0px;word-spacing:0px"
     x="30.260195"
     y="-52.264889"
     id="text849"><tspan
       sodipodi:role="line"
       id="tspan847"
       x="30.260195"
       y="-52.264889" /></text>
  <text
     xml:space="preserve"
     style="font-size:30.1859px;line-height:1.25;font-family:'Maven Pro';-inkscape-font-specification:'Maven Pro';letter-spacing:0px;word-spacing:0px;stroke-width:0.999999;fill:#ffffff;fill-opacity:1;"
     x="62.297081"
     y="32.64127"
     id="text886"><tspan
       sodipodi:role="line"
       id="tspan884"
       x="62.297081"
       y="32.64127"
       style="font-weight:bold;stroke-width:0.999999;fill:#ffffff;fill-opacity:1;">Launch</tspan></text>
  <text
     xml:space="preserve"
     style="font-size:20.7465px;line-height:1.25;font-family:'Maven Pro';-inkscape-font-specification:'Maven Pro';letter-spacing:0px;word-spacing:0px;stroke-width:1;fill:#ffffff;fill-opacity:1;"
     x="62.739655"
     y="52.250332"
     id="text890"><tspan
       sodipodi:role="line"
       id="tspan888"
       x="62.739655"
       y="52.250332"
       style="font-weight:bold;stroke-width:1;fill:#ffffff;fill-opacity:1;">Web3 App</tspan></text>
</svg>
