<?xml version="1.0" encoding="UTF-8" standalone="no"?>
<svg
   xmlns:dc="http://purl.org/dc/elements/1.1/"
   xmlns:cc="http://creativecommons.org/ns#"
   xmlns:rdf="http://www.w3.org/1999/02/22-rdf-syntax-ns#"
   xmlns:svg="http://www.w3.org/2000/svg"
   xmlns="http://www.w3.org/2000/svg"
   xmlns:xlink="http://www.w3.org/1999/xlink"
   xmlns:sodipodi="http://sodipodi.sourceforge.net/DTD/sodipodi-0.dtd"
   xmlns:inkscape="http://www.inkscape.org/namespaces/inkscape"
   width="67"
   height="67"
   viewBox="0 0 67 67"
   version="1.1"
   id="svg21"
   sodipodi:docname="img-pgc-shops.svg"
   inkscape:version="1.0.2 (1.0.2+r75+1)">
  <metadata
     id="metadata25">
    <rdf:RDF>
      <cc:Work
         rdf:about="">
        <dc:format>image/svg+xml</dc:format>
        <dc:type
           rdf:resource="http://purl.org/dc/dcmitype/StillImage" />
        <dc:title>BittrexButton</dc:title>
      </cc:Work>
    </rdf:RDF>
  </metadata>
  <sodipodi:namedview
     pagecolor="#ffffff"
     bordercolor="#666666"
     borderopacity="1"
     objecttolerance="10"
     gridtolerance="10"
     guidetolerance="10"
     inkscape:pageopacity="0"
     inkscape:pageshadow="2"
     inkscape:window-width="1920"
     inkscape:window-height="1025"
     id="namedview23"
     showgrid="false"
     inkscape:zoom="2.978673"
     inkscape:cx="-0.56678488"
     inkscape:cy="54.574415"
     inkscape:window-x="0"
     inkscape:window-y="27"
     inkscape:window-maximized="1"
     inkscape:current-layer="svg21"
     inkscape:document-rotation="0"
     showguides="false" />
  <title
     id="title2">BittrexButton</title>
  <defs
     id="defs9">
    <linearGradient
       x1="0.29735738"
       y1="0.48438627"
       x2="0.86163145"
       y2="0.52068901"
       id="linearGradient-1">
      <stop
         stop-color="#6DFF86"
         offset="0%"
         id="stop4"
         style="stop-color:#fef301;stop-opacity:1" />
      <stop
         stop-color="#91AFFF"
         offset="100%"
         id="stop6"
         style="stop-color:#cd7604;stop-opacity:1" />
    </linearGradient>
    <filter
       inkscape:collect="always"
       style="color-interpolation-filters:sRGB"
       id="filter908"
       x="-0.1098202"
       width="1.2196404"
       y="-0.1098202"
       height="1.2196404">
      <feGaussianBlur
         inkscape:collect="always"
         stdDeviation="2.2297264"
         id="feGaussianBlur910" />
    </filter>
    <linearGradient
       inkscape:collect="always"
       xlink:href="#linearGradient-1"
       id="linearGradient907"
       x1="41.353233"
       y1="5.6199336"
       x2="16.264404"
       y2="5.3011146"
       gradientUnits="userSpaceOnUse"
       gradientTransform="matrix(1.8528867,0,0,1.8528864,-89.038326,-44.012233)" />
  </defs>
  <rect
     style="mix-blend-mode:screen;fill:#000001;fill-opacity:0.6;stroke:url(#linearGradient907);stroke-width:2;stroke-linecap:square;stroke-linejoin:round;stroke-miterlimit:4;stroke-dasharray:none;paint-order:fill markers stroke"
     id="rect885"
     width="63"
     height="62.999989"
     x="-64.89679"
     y="-64.899994"
     transform="scale(-1)"
     ry="13.460964" />
  <circle
     style="opacity:0.392;fill:#f29800;fill-opacity:1;stroke:none;stroke-width:100.001;stroke-linecap:square;stroke-linejoin:round;paint-order:markers stroke fill;filter:url(#filter908)"
     id="path876"
     cx="33.39679"
     cy="33.400002"
     r="24.364113" />
  <text
     xml:space="preserve"
     style="font-size:64px;line-height:1.25;font-family:'Maven Pro';-inkscape-font-specification:'Maven Pro';letter-spacing:0px;word-spacing:0px"
     x="30.260195"
     y="-52.264889"
     id="text849"><tspan
       sodipodi:role="line"
       id="tspan847"
       x="30.260195"
       y="-52.264889" /></text>
  <g
     id="g982"
     transform="matrix(0.24116071,0,0,0.24116071,67.486483,3.596092)"
     style="stroke-width:4.14663">
    <path
       d="m -211.10884,107.83615 h 139.379581 c 4.99542,0 9.05574,-4.06031 9.05574,-9.055732 0,-1.796382 -0.54138,-3.543549 -1.5257,-5.020027 l -18.60363,-27.905446 c -2.19011,-3.297469 -5.8567,-5.266109 -9.81858,-5.266109 h -97.595231 c -3.93728,0 -7.62848,1.96864 -9.81859,5.266109 l -18.60363,27.880838 c -0.98432,1.501086 -1.52569,3.248253 -1.52569,5.020027 0,5.02003 4.06031,9.08034 9.05573,9.08034 z m 6.69337,7.87456 v 39.37276 19.68638 c 0,6.52112 5.29072,11.81183 11.81183,11.81183 h 55.12187 c 6.52112,0 11.81183,-5.29071 11.81183,-11.81183 v -19.68638 -39.37276 h -15.74911 v 39.37276 h -47.24731 v -39.37276 z m 110.243741,0 v 62.99642 c 0,4.35561 3.51894,7.87455 7.87455,7.87455 4.35561,0 7.87455,-3.51894 7.87455,-7.87455 v -62.99642 z"
       id="path4-3"
       style="fill:#f4e549;fill-opacity:1;stroke-width:4.14663" />
    <path
       id="path4"
       style="fill:#e4b92d;fill-opacity:1;stroke-width:4.14663"
       d="m -107.70127,60.588188 a 84.19442,84.19442 0 0 1 0.79102,11.503906 84.19442,84.19442 0 0 1 -7.96485,35.744136 h 43.271488 c 4.995416,0 9.054686,-4.06122 9.054686,-9.056636 0,-1.796382 -0.54107,-3.543053 -1.52539,-5.019531 l -18.603516,-27.90625 c -2.19011,-3.297471 -5.85648,-5.265625 -9.818358,-5.265625 z m 13.6543,55.123042 v 62.9961 c 0,4.35561 3.519388,7.875 7.874998,7.875 4.35561,0 7.875,-3.51939 7.875,-7.875 v -62.9961 z m -31.49805,9.20899 a 84.19442,84.19442 0 0 1 -15.74804,15.05078 v 15.11133 h -35.62305 a 84.19442,84.19442 0 0 1 -14.1875,1.20508 84.19442,84.19442 0 0 1 -13.18555,-1.03907 v 19.52149 c 0,6.52112 5.28944,11.8125 11.81055,11.8125 h 55.12305 c 6.52112,0 11.81054,-5.29138 11.81054,-11.8125 v -19.6875 z" />
  </g>
</svg>
