<?xml version="1.0" encoding="UTF-8" standalone="no"?>
<svg
   xmlns:dc="http://purl.org/dc/elements/1.1/"
   xmlns:cc="http://creativecommons.org/ns#"
   xmlns:rdf="http://www.w3.org/1999/02/22-rdf-syntax-ns#"
   xmlns:svg="http://www.w3.org/2000/svg"
   xmlns="http://www.w3.org/2000/svg"
   xmlns:xlink="http://www.w3.org/1999/xlink"
   xmlns:sodipodi="http://sodipodi.sourceforge.net/DTD/sodipodi-0.dtd"
   xmlns:inkscape="http://www.inkscape.org/namespaces/inkscape"
   width="211px"
   height="67px"
   viewBox="0 0 211 67"
   version="1.1"
   id="svg21"
   sodipodi:docname="img-pgc.svg"
   inkscape:version="1.0.2 (1.0.2+r75+1)">
  <metadata
     id="metadata25">
    <rdf:RDF>
      <cc:Work
         rdf:about="">
        <dc:format>image/svg+xml</dc:format>
        <dc:type
           rdf:resource="http://purl.org/dc/dcmitype/StillImage" />
      </cc:Work>
    </rdf:RDF>
  </metadata>
  <sodipodi:namedview
     pagecolor="#ffffff"
     bordercolor="#666666"
     borderopacity="1"
     objecttolerance="10"
     gridtolerance="10"
     guidetolerance="10"
     inkscape:pageopacity="0"
     inkscape:pageshadow="2"
     inkscape:window-width="1920"
     inkscape:window-height="1025"
     id="namedview23"
     showgrid="false"
     inkscape:zoom="2.978673"
     inkscape:cx="80.224745"
     inkscape:cy="86.203938"
     inkscape:window-x="0"
     inkscape:window-y="27"
     inkscape:window-maximized="1"
     inkscape:current-layer="svg21"
     inkscape:document-rotation="0" />
  <title
     id="title2">BittrexButton</title>
  <defs
     id="defs9">
    <linearGradient
       x1="29.7357383%"
       y1="48.4386243%"
       x2="86.1631498%"
       y2="52.0688999%"
       id="linearGradient-1">
      <stop
         stop-color="#6DFF86"
         offset="0%"
         id="stop4"
         style="stop-color:#fef301;stop-opacity:1" />
      <stop
         stop-color="#91AFFF"
         offset="100%"
         id="stop6"
         style="stop-color:#cd7604;stop-opacity:1" />
    </linearGradient>
    <linearGradient
       inkscape:collect="always"
       xlink:href="#linearGradient-1"
       id="linearGradient850"
       x1="34.446827"
       y1="55.242304"
       x2="100.87797"
       y2="59.516172"
       gradientTransform="matrix(1.7837652,0,0,0.56061191,1.3968,1.4)"
       gradientUnits="userSpaceOnUse" />
    <filter
       inkscape:collect="always"
       style="color-interpolation-filters:sRGB"
       id="filter908"
       x="-0.1098202"
       width="1.2196404"
       y="-0.1098202"
       height="1.2196404">
      <feGaussianBlur
         inkscape:collect="always"
         stdDeviation="2.2297264"
         id="feGaussianBlur910" />
    </filter>
  </defs>
  <path
     d="m 14.753223,65.396654 c -0.537997,0 -1.061882,-0.0067 -1.594587,-0.01841 C 12.17084,65.353153 11.001359,65.299613 9.8601011,65.105532 8.7841082,64.921489 7.8280621,64.620328 6.9390451,64.188665 6.0182775,63.746962 5.1909977,63.174757 4.4748451,62.48878 3.7445811,61.807822 3.1430835,61.02815 2.67388,60.151438 2.2170241,59.306515 1.9048097,58.399686 1.71607,57.379086 1.5008714,56.25308 1.4461898,55.112015 1.4232588,54.241995 1.4109114,53.888968 1.3968,52.714441 1.3968,52.714441 V 14.063808 c 0,0 0.015875,-1.156122 0.026459,-1.495764 0.022931,-0.876713 0.077613,-2.017777 0.2910473,-3.132072 C 1.9030458,8.4086793 2.2152601,7.5018509 2.67388,6.6552546 3.1413195,5.7768692 3.7428172,4.9921782 4.4642616,4.3162397 5.1927616,3.62357 6.0235692,3.0496915 6.9372812,2.6046429 7.8439374,2.1679598 8.7982196,1.8701454 9.8530454,1.6944683 11.041929,1.4936944 12.244925,1.4418279 13.162164,1.4200774 L 14.753223,1.4 H 196.02803 l 1.61046,0.021751 c 0.90489,0.020077 2.10965,0.071944 3.27913,0.2710446 1.06188,0.1773503 2.02499,0.4768379 2.94752,0.9168671 0.90489,0.4400293 1.73217,1.0139078 2.45361,1.699885 0.72498,0.6792848 1.32647,1.4689951 1.80626,2.3490537 0.45509,0.8549618 0.76378,1.7617902 0.94546,2.7589668 0.20285,1.0557353 0.26636,2.1399143 0.30516,3.1571683 0.005,0.473492 0.005,0.983792 0.005,1.489072 0.0162,0.627419 0.0162,1.224721 0.0162,1.827042 v 35.016627 c 0,0.60734 0,1.201296 -0.0159,1.798598 0,0.543763 0,1.042351 -0.007,1.555998 -0.037,0.985464 -0.10055,2.06797 -0.30163,3.100282 -0.18345,1.025619 -0.49214,1.932448 -0.95252,2.794102 -0.4745,0.87002 -1.07952,1.654711 -1.79038,2.318938 -0.73027,0.699362 -1.55754,1.269894 -2.46773,1.709923 -0.91724,0.441703 -1.85035,0.734498 -2.94399,0.920214 -1.12891,0.194081 -2.29839,0.247621 -3.29677,0.272717 -0.51506,0.01171 -1.05835,0.01841 -1.584,0.01841 L 194.12476,65.4 14.753223,65.396654"
     id="Fill-4-Copy"
     style="fill:#000001;fill-opacity:0.6;fill-rule:evenodd;stroke:url(#linearGradient850);stroke-width:2" />
  <circle
     style="opacity:0.67479624;fill:#f29800;fill-opacity:1;stroke:none;stroke-width:100.001;stroke-linecap:square;stroke-linejoin:round;paint-order:markers stroke fill;filter:url(#filter908)"
     id="path876"
     cx="33.396801"
     cy="33.5"
     r="24.364113" />
  <g
     id="g2950"
     transform="matrix(0.23324791,0,0,0.23324791,-917.16442,502.79597)"
     style="stroke-width:16.2039">
    <g
       id="g2689-3-7"
       inkscape:export-filename="/home/grigoris/workspaces/CoreWebGit/phoinix-network/img/phoenix.png"
       inkscape:export-xdpi="46.102879"
       inkscape:export-ydpi="46.102879"
       transform="matrix(1.6129478,0,0,1.6129478,-2225.512,264.11189)"
       style="fill:#f4e549;fill-opacity:1;stroke-width:10.0461">
      <g
         id="g28-9-3-6-7"
         transform="matrix(0.35277777,0,0,-0.35277777,3905.9134,-1449.2683)"
         style="fill:#f4e549;fill-opacity:1;stroke-width:10.0461">
        <path
           d="m 0,0 c 2.881,2.337 3.514,3.822 1.571,7.133 -4.823,8.218 -5.297,17 -2.205,26.545 C 1.197,29.496 2.491,25.636 4.479,22.174 9.809,12.89 17.69,6.678 28.067,3.752 c 17.647,-4.977 26.831,-23.671 19.759,-41.849 -4.043,7.655 -9.102,13.087 -17.395,14.333 -6.652,0.999 -12.378,-0.52 -16.638,-6.155 -4.153,-5.495 -4.787,-11.735 -1.037,-17.04 5.097,-7.21 10.321,-14.887 17.005,-20.428 L 102.95,5.803 C 102.676,6.081 102.41,6.364 102.133,6.64 45.27,63.503 -46.515,64.145 -104.176,8.582 l 71.723,-71.723 c 2.533,17.754 7.117,34.95 18.312,49.502 C -10.184,-8.495 -5.076,-4.118 0,0"
           style="fill:#f4e549;fill-opacity:1;fill-rule:nonzero;stroke:none;stroke-width:10.0461"
           id="path30-1-6-7-1" />
      </g>
      <g
         id="g32-2-7-5-1"
         transform="matrix(0.35277777,0,0,-0.35277777,3960.1611,-1422.0049)"
         style="fill:#f4e549;fill-opacity:1;stroke-width:10.0461">
        <path
           d="m 0,0 c 2.664,-13.977 4.359,-27.337 3.361,-40.877 -1.354,-18.358 -5.179,-36.141 -12.573,-53.124 -9.56,-21.957 -23.304,-40.772 -41.404,-56.413 -5.632,-4.866 -5.743,-4.871 -11.076,0.241 -11.429,10.956 -22.788,21.983 -34.353,33.151 4.509,3.851 9.041,7.392 13.195,11.332 14.707,13.947 24.398,30.772 28.954,50.607 0.582,2.534 2.608,4.993 4.531,6.923 15.488,15.542 31.109,30.953 46.711,46.384 C -2.076,-1.204 -1.284,-0.847 0,0"
           style="fill:#f4e549;fill-opacity:1;fill-rule:nonzero;stroke:none;stroke-width:10.0461"
           id="path34-7-5-3-5" />
      </g>
      <g
         id="g36-0-3-56-9"
         transform="matrix(0.35277777,0,0,-0.35277777,3852.5004,-1421.5539)"
         style="fill:#f4e549;fill-opacity:1;stroke-width:10.0461">
        <path
           d="m 0,0 c 9.738,-9.319 18.721,-17.899 27.686,-26.5 7.84,-7.523 15.711,-15.015 23.44,-22.652 1.42,-1.403 2.796,-3.303 3.218,-5.192 3.859,-17.295 12.005,-32.34 23.989,-45.216 5.345,-5.742 11.534,-10.7 17.04,-15.739 -3.72,-3.997 -7.546,-8.396 -11.679,-12.486 -8.218,-8.134 -16.635,-16.066 -24.891,-24.162 -1.523,-1.493 -2.41,-1.708 -4.253,-0.204 -22.522,18.387 -38.852,41.265 -48.525,68.572 -8.421,23.769 -11.511,48.322 -7.433,73.482 C -0.918,-7.075 -0.558,-4.032 0,0"
           style="fill:#f4e549;fill-opacity:1;fill-rule:nonzero;stroke:none;stroke-width:10.0461"
           id="path38-9-5-2-7" />
      </g>
      <g
         id="g40-3-6-9-7"
         transform="matrix(0.35277777,0,0,-0.35277777,3935.8285,-1363.9179)"
         style="fill:#f4e549;fill-opacity:1;stroke-width:10.0461">
        <path
           d="m 0,0 c -7.241,-3.685 -13.734,-7.088 -20.355,-10.222 -0.769,-0.364 -2.533,0.47 -3.352,1.254 -18.496,17.708 -36.922,35.488 -55.367,53.249 -1.044,1.005 -2.131,1.964 -3.435,3.162 -7.908,-7.578 -15.711,-15.031 -23.488,-22.511 -11.809,-11.36 -23.577,-22.763 -35.443,-34.063 -0.94,-0.896 -2.874,-1.941 -3.722,-1.553 -7.094,3.247 -14.042,6.814 -21.708,10.619 28.267,27.297 55.684,53.775 83.432,80.571 C -55.738,53.78 -28.3,27.306 0,0"
           style="fill:#f4e549;fill-opacity:1;fill-rule:nonzero;stroke:none;stroke-width:10.0461"
           id="path42-6-2-1-6" />
      </g>
      <g
         id="g44-0-9-2-7"
         transform="matrix(0.35277777,0,0,-0.35277777,3891.3561,-1357.6348)"
         style="fill:#f4e549;fill-opacity:1;stroke-width:10.0461">
        <path
           d="m 0,0 c 5.417,5.817 10.52,11.634 15.985,17.088 8.383,8.368 17.034,16.466 25.521,24.731 1.305,1.271 2.106,2.045 3.862,0.333 C 59.147,28.723 73.04,15.41 86.887,2.051 87.043,1.9 87.054,1.599 87.374,0.659 58.095,-8.071 28.963,-7.993 0,0"
           style="fill:#f4e549;fill-opacity:1;fill-rule:nonzero;stroke:none;stroke-width:10.0461"
           id="path46-6-1-7-3" />
      </g>
      <g
         id="g48-2-2-0-6"
         transform="matrix(0.35277777,0,0,-0.35277777,3954.7876,-1436.9191)"
         style="fill:#f4e549;fill-opacity:1;stroke-width:10.0461">
        <path
           d="m 0,0 c 3.461,-8.128 6.791,-15.654 9.763,-23.32 0.356,-0.919 -0.965,-2.871 -1.974,-3.878 -12.249,-12.216 -24.611,-24.319 -36.873,-36.521 -2.127,-2.116 -3.928,-4.558 -6.351,-7.402 -0.736,1.726 -0.993,2.12 -1.074,2.548 -1.527,8.101 -2.98,16.217 -4.581,24.303 -0.439,2.214 -0.323,3.793 1.514,5.58 12.447,12.112 24.726,24.397 37.068,36.617 C -1.991,-1.56 -1.385,-1.138 0,0"
           style="fill:#f4e549;fill-opacity:1;fill-rule:nonzero;stroke:none;stroke-width:10.0461"
           id="path50-6-7-93-5" />
      </g>
      <g
         id="g52-1-0-60-6"
         transform="matrix(0.35277777,0,0,-0.35277777,3857.5847,-1436.0883)"
         style="fill:#f4e549;fill-opacity:1;stroke-width:10.0461">
        <path
           d="m 0,0 c 7.054,-6.758 13.312,-12.738 19.552,-18.736 6.923,-6.655 13.782,-13.377 20.776,-19.954 1.679,-1.58 1.782,-2.825 1.218,-5.098 -1.57,-6.327 -2.528,-12.807 -3.684,-19.234 -0.294,-1.636 -0.424,-3.301 -0.697,-5.493 -1.218,0.8 -1.976,1.149 -2.544,1.694 -13.993,13.436 -27.989,26.868 -41.889,40.399 -0.959,0.934 -1.97,2.926 -1.604,3.933 C -6.198,-15.142 -3.177,-7.921 0,0"
           style="fill:#f4e549;fill-opacity:1;fill-rule:nonzero;stroke:none;stroke-width:10.0461"
           id="path54-8-9-6-3" />
      </g>
      <g
         id="g56-7-3-2-9"
         transform="matrix(0.35277777,0,0,-0.35277777,3937.6666,-1427.8441)"
         style="fill:#f4e549;fill-opacity:1;stroke-width:10.0461">
        <path
           d="m 0,0 c -3.586,4.985 -7.081,9.842 -10.573,14.701 -0.07,0.098 -0.085,0.238 -0.16,0.332 -4.915,6.132 -4.946,6.164 0.431,11.409 10.343,10.09 20.768,20.097 31.051,30.247 1.893,1.869 2.979,2.382 4.87,-0.055 3.91,-5.039 8.142,-9.83 12.248,-14.717 1.74,-2.071 1.479,-4.045 -0.367,-5.839 C 25.406,24.323 13.293,12.589 1.178,0.856 0.847,0.536 0.428,0.307 0,0"
           style="fill:#f4e549;fill-opacity:1;fill-rule:nonzero;stroke:none;stroke-width:10.0461"
           id="path58-9-6-6-4" />
      </g>
      <g
         id="g60-2-0-1-8"
         transform="matrix(0.35277777,0,0,-0.35277777,3874.6977,-1427.2023)"
         style="fill:#f4e549;fill-opacity:1;stroke-width:10.0461">
        <path
           d="m 0,0 c -7.958,7.625 -15.887,15.295 -23.902,22.875 -4.721,4.464 -9.678,8.683 -14.285,13.257 -0.895,0.889 -1.441,3.486 -0.826,4.32 4.287,5.811 8.922,11.365 13.636,17.239 9.826,-9.417 19.294,-18.49 28.762,-27.562 2.765,-2.649 5.459,-5.378 8.326,-7.912 1.955,-1.727 2.479,-2.77 0.438,-5.25 C 7.795,11.676 4.112,5.834 0,0"
           style="fill:#f4e549;fill-opacity:1;fill-rule:nonzero;stroke:none;stroke-width:10.0461"
           id="path62-0-6-87-1" />
      </g>
      <g
         id="g64-2-2-9-2"
         transform="matrix(0.35277777,0,0,-0.35277777,3935.8854,-1417.0056)"
         style="fill:#f4e549;fill-opacity:1;stroke-width:10.0461">
        <path
           d="m 0,0 c -3.35,15.414 -10.591,28.806 -21.675,40.583 -0.89,-0.701 -1.499,-1.097 -2.01,-1.594 -19.888,-19.348 -39.791,-38.682 -59.607,-58.105 -1.752,-1.717 -2.907,-2.272 -4.868,-0.382 -14.811,14.274 -29.688,28.48 -44.542,42.708 -5.015,4.803 -10.025,9.609 -14.934,14.315 -0.648,-0.37 -0.891,-0.459 -1.066,-0.62 -0.272,-0.25 -0.509,-0.54 -0.742,-0.828 -17.337,-21.405 -23.333,-45.704 -17.701,-72.583 4.77,-22.765 17.26,-40.522 36.611,-53.5 1.921,-1.289 2.899,-1.005 4.334,0.396 9.613,9.383 19.288,18.704 28.919,28.069 3.963,3.853 7.817,7.82 11.851,11.597 0.467,0.437 1.56,0.726 2.287,0.664 l 0.066,0.053 c 0.15,0 1.148,-0.449 1.648,-0.949 0.276,-0.276 3.699,-3.668 6.695,-6.637 0.152,-0.137 0.308,-0.283 0.47,-0.444 9.891,-9.777 19.917,-19.417 29.895,-29.106 5.467,-5.308 5.567,-5.447 11.728,-0.864 C -5.17,-66.789 7.192,-33.092 0,0"
           style="fill:#f4e549;fill-opacity:1;fill-rule:nonzero;stroke:none;stroke-width:10.0461"
           id="path66-3-6-2-9" />
      </g>
    </g>
    <g
       id="g64-2-2-4-5-3"
       transform="matrix(0.56901213,0,0,-0.56901213,4122.7806,-2021.3484)"
       style="fill:#e4b92d;fill-opacity:1;stroke-width:10.0461">
      <path
         id="path66-3-6-7-9-9"
         style="fill:#e4b92d;fill-opacity:1;fill-rule:nonzero;stroke:none;stroke-width:21.6051"
         d="m 13950.26,-7913.1934 a 374.11818,378.9985 0 0 1 18.301,117.0801 374.11818,378.9985 0 0 1 -2.637,44.9004 l 90.689,-90.6894 c -0.589,-0.5979 -1.162,-1.2053 -1.758,-1.7989 -30.873,-30.8737 -66.537,-54.0309 -104.595,-69.4922 z m 128.383,89.0489 c -1.602,0.1231 -3.203,1.4023 -5.239,3.4121 -22.114,21.8285 -44.533,43.3512 -66.777,65.0508 -11.564,11.2798 -11.498,11.3477 -0.928,24.5351 0.162,0.2022 0.193,0.5041 0.344,0.7149 7.51,10.4497 15.026,20.8945 22.738,31.6152 0.921,-0.6602 1.822,-1.1536 2.533,-1.8418 26.055,-25.233 52.106,-50.4678 78.116,-75.748 3.97,-3.8582 4.531,-8.1028 0.789,-12.5567 -8.831,-10.51 -17.931,-20.8135 -26.34,-31.6504 -2.033,-2.6205 -3.635,-3.6544 -5.236,-3.5312 z m 54.511,70.0058 c -2.978,2.4474 -4.28,3.3538 -5.392,4.4571 -26.543,26.2803 -52.951,52.7019 -79.719,78.75 -3.951,3.8431 -4.2,7.2385 -3.256,12 3.443,17.3897 6.568,34.8436 9.852,52.2656 0.174,0.9204 0.727,1.7666 2.31,5.4785 5.211,-6.1163 9.084,-11.3673 13.658,-15.918 26.371,-26.2416 52.957,-52.2693 79.299,-78.541 2.17,-2.1656 5.01,-6.3634 4.244,-8.3398 -6.391,-16.4865 -13.552,-32.6723 -20.996,-50.1524 z m -161.845,34.1172 c -1.914,1.5076 -3.224,2.3609 -4.323,3.4297 -2.877,2.7989 -5.753,5.5978 -8.631,8.3965 a 374.11818,378.9985 0 0 1 -109.191,189.666 c 2.832,2.8074 4.44,4.4043 8.037,7.9688 0.327,0.2946 0.662,0.6088 1.01,0.955 21.271,21.0264 42.834,41.7566 64.293,62.5938 11.757,11.4154 11.973,11.7155 25.223,1.8594 59.079,-43.9539 85.664,-116.4223 70.197,-187.5899 -7.205,-33.1493 -22.778,-61.9517 -46.615,-87.2793 z m 194.603,56.8027 c -2.761,1.8216 -4.464,2.5883 -5.707,3.8184 -33.554,33.1859 -67.149,66.3293 -100.457,99.7539 -4.136,4.1507 -8.492,9.4391 -9.744,14.8887 -9.798,42.6571 -30.641,78.8396 -62.27,108.834 -8.933,8.4733 -18.68,16.0891 -28.377,24.3711 24.872,24.0178 49.302,47.7329 73.881,71.2949 11.469,10.9938 11.708,10.9824 23.821,0.5176 38.925,-33.6375 68.483,-74.0997 89.043,-121.3203 15.901,-36.5236 24.127,-74.7694 27.039,-114.25 2.146,-29.1191 -1.5,-57.8494 -7.229,-87.9083 z m -327.777,180.9727 c -59.675,57.6274 -118.637,114.5705 -179.428,173.2754 16.487,8.183 31.427,15.8529 46.684,22.8359 1.823,0.8345 5.984,-1.4129 8.005,-3.3398 25.519,-24.3018 50.827,-48.8231 76.223,-73.2539 16.725,-16.0865 33.507,-32.1149 50.514,-48.4121 2.804,2.5764 5.141,4.6375 7.387,6.7988 39.667,38.1968 79.294,76.4348 119.072,114.5176 1.761,1.686 5.555,3.4801 7.209,2.6972 14.239,-6.7399 28.203,-14.0594 43.775,-21.9843 -60.862,-58.7242 -119.87,-115.6579 -179.441,-173.1348 z m -71.381,22.5391 a 374.11818,378.9985 0 0 1 -35.541,16.3574 c 1.963,1.4133 3.95,2.8097 5.984,4.1738 4.132,2.7721 6.234,2.1614 9.321,-0.8515 6.733,-6.572 13.482,-13.1282 20.236,-19.6797 z m -72.658,28.8984 a 374.11818,378.9985 0 0 1 -99.655,13.6953 374.11818,378.9985 0 0 1 -43.068,-2.5215 c 19.709,32.6165 44.967,61.4228 75.535,86.3789 3.964,3.2345 5.871,2.7734 9.147,-0.4375 17.755,-17.4112 35.857,-34.4699 53.531,-51.9628 8.888,-8.796 17.115,-18.2557 25.115,-26.8516 -6.603,-6.0433 -13.658,-12.0432 -20.605,-18.3008 z m 145.898,67.2285 c -1.451,0.1 -2.687,1.2984 -4.265,2.836 -18.253,17.7746 -36.859,35.1913 -54.887,53.1875 -11.753,11.7293 -22.727,24.238 -34.377,36.748 62.288,17.1897 124.939,17.3587 187.906,-1.416 -0.688,-2.0216 -0.711,-2.6694 -1.047,-2.9942 -29.779,-28.7298 -59.658,-57.3598 -89.291,-86.2402 -1.652,-1.6108 -2.91,-2.1987 -4.039,-2.1211 z"
         transform="matrix(0.46498716,0,0,-0.46498716,-6518.1544,-3549.1275)" />
    </g>
  </g>
  <text
     xml:space="preserve"
     style="font-size:64px;line-height:1.25;font-family:'Maven Pro';-inkscape-font-specification:'Maven Pro';letter-spacing:0px;word-spacing:0px"
     x="30.260195"
     y="-52.264889"
     id="text849"><tspan
       sodipodi:role="line"
       id="tspan847"
       x="30.260195"
       y="-52.264889" /></text>
  <g
     aria-label="Mint "
     id="text943"
     style="font-style:normal;font-variant:normal;font-weight:normal;font-stretch:normal;font-size:25.3632px;line-height:1.25;font-family:Michroma;-inkscape-font-specification:Michroma;letter-spacing:0px;word-spacing:0px;fill:#ffffff;fill-opacity:1;stroke-width:0.999999">
    <path
       d="M 67.298462,14.434671 V 31.87187 h -2.3778 V 12.849471 h 3.963 L 79.967677,29.49407 91.051692,12.849471 h 3.789619 V 31.87187 h -2.3778 V 14.694742 L 81.168961,31.87187 h -2.402568 z"
       style="stroke-width:0.999999"
       id="path974" />
    <path
       d="m 99.596912,17.60507 h 2.377798 v 14.2668 h -2.377798 z m 2.377798,-2.377799 h -2.377798 v -2.3778 h 2.377798 z"
       style="stroke-width:0.999999"
       id="path976" />
    <path
       d="m 120.20451,31.87187 v -7.926 q 0,-1.325128 -0.19815,-2.229187 -0.19815,-0.916444 -0.7926,-1.473741 -0.59445,-0.557297 -1.68427,-0.804984 -1.08983,-0.247688 -2.87318,-0.247688 -1.93196,0 -3.1704,0.284841 -1.22605,0.284841 -1.93196,0.804984 -0.70591,0.520144 -0.97837,1.250822 -0.26007,0.730678 -0.26007,1.622353 v 8.7186 h -2.3778 v -14.2668 h 2.3778 v 2.3778 q 0.26007,-0.606834 0.74306,-1.040287 0.483,-0.445838 1.08983,-0.755447 0.60683,-0.309609 1.31274,-0.495375 0.70591,-0.19815 1.41182,-0.297225 0.70591,-0.111459 1.36228,-0.148612 0.66876,-0.03715 1.21367,-0.03715 1.5852,0 2.72456,0.19815 1.15175,0.19815 1.94435,0.582066 0.80499,0.383916 1.28798,0.953597 0.48299,0.569681 0.74306,1.325128 0.27245,0.743062 0.35915,1.671891 0.0867,0.916443 0.0867,2.006268 l -0.0124,7.926 z"
       style="stroke-width:0.999999"
       id="path978" />
    <path
       d="m 139.62321,25.53107 q 0,1.820503 -0.29722,3.046556 -0.29723,1.213669 -1.00314,1.944347 -0.69352,0.730678 -1.83289,1.040288 -1.13936,0.309609 -2.81125,0.309609 -1.62235,0 -2.72456,-0.247687 -1.10221,-0.247688 -1.78335,-0.842138 -0.68114,-0.59445 -0.97837,-1.5852 -0.29722,-0.99075 -0.29722,-2.476875 v -7.158168 h -2.9351 V 17.60507 h 2.9351 v -3.901078 h 2.3778 v 3.901078 h 8.9539 v 1.956732 h -8.9539 v 7.158168 q 0,1.1889 0.17338,1.832888 0.18576,0.643987 0.58206,0.941212 0.3963,0.297225 1.04029,0.346763 0.65637,0.04954 1.59759,0.04954 0.74306,0 1.32512,-0.02477 0.59445,-0.02477 1.02791,-0.148612 0.44583,-0.136228 0.75544,-0.3963 0.30961,-0.272456 0.49538,-0.755447 0.19815,-0.482991 0.28484,-1.213669 0.0867,-0.743062 0.0867,-1.820503 z"
       style="stroke-width:0.999999"
       id="path980" />
  </g>
  <g
     aria-label="a"
     id="text954"
     style="font-size:29.0399px;line-height:1.25;font-family:'Maven Pro';-inkscape-font-specification:'Maven Pro';letter-spacing:0px;word-spacing:0px;fill:#ffffff;fill-opacity:1;stroke-width:1">
    <path
       d="m 162.73218,27.20677 q 0,-0.992575 0.35449,-1.772455 0.36867,-0.79406 0.89331,-1.276168 0.52465,-0.496287 1.33289,-0.836598 0.80824,-0.354491 1.43214,-0.510467 0.62391,-0.170156 1.47469,-0.255234 0.86495,-0.08508 1.21944,-0.09926 0.36867,-0.01418 0.86496,-0.01418 l 2.32546,0.141797 q 0,-1.942611 -1.07765,-2.76503 -1.06347,-0.836599 -3.16206,-0.836599 -2.35382,0 -4.23971,0.694803 v -2.027689 q 2.14112,-0.75152 4.35315,-0.75152 3.04862,0 4.65092,1.54558 1.6023,1.531401 1.6023,4.494946 v 4.353149 q 0,1.389604 -0.65226,2.382179 -0.63809,0.978395 -1.65902,1.417964 -1.00676,0.439569 -1.90007,0.609724 -0.87914,0.170156 -1.7441,0.170156 -0.66644,0 -1.37542,-0.08508 -0.69481,-0.08508 -1.58812,-0.38285 -0.87914,-0.311952 -1.5314,-0.77988 -0.65227,-0.482108 -1.1202,-1.361246 -0.45374,-0.893317 -0.45374,-2.056047 z m 2.0844,0 q 0,2.72249 3.94194,2.72249 0.0142,0 0.0425,0 3.85686,0 3.85686,-2.637412 v -2.793389 q -0.96421,-0.170156 -2.58069,-0.170156 -5.26065,0 -5.26065,2.878467 z"
       style="fill:#ffffff;fill-opacity:1;stroke-width:1"
       id="path983" />
  </g>
  <g
     aria-label="Gold backed NFT"
     id="text958"
     style="font-size:17.9534px;line-height:1.25;font-family:'Maven Pro';-inkscape-font-specification:'Maven Pro';letter-spacing:0px;word-spacing:0px;fill:#ffffff;fill-opacity:1;stroke-width:1">
    <path
       d="m 69.2648,53.276568 q -5.549074,0 -5.549074,-6.136416 0,-6.136416 5.549074,-6.136416 1.989952,0 3.769512,0.753902 v 1.253583 q -1.744495,-0.771436 -3.629251,-0.771436 -2.279241,0 -3.339964,1.183452 -1.060723,1.183452 -1.060723,3.716915 0,2.550996 1.060723,3.725681 1.060723,1.174685 3.339964,1.174685 1.437674,0 2.743854,-0.429549 V 47.876522 H 69.2648 V 46.62294 h 4.181529 v 5.724399 q -1.937354,0.929229 -4.181529,0.929229 z"
       style="stroke-width:1"
       id="path986" />
    <path
       d="m 75.935961,50.979795 q -0.376951,-0.964294 -0.376951,-2.331838 0,-1.367544 0.376951,-2.323072 0.376951,-0.964294 1.025658,-1.437674 0.648707,-0.473381 1.314946,-0.66624 0.675006,-0.201625 1.481506,-0.201625 0.815267,0 1.490273,0.201625 0.683772,0.192859 1.332479,0.66624 0.648706,0.47338 1.025658,1.437674 0.376951,0.955528 0.376951,2.323072 0,1.367544 -0.376951,2.331838 -0.376952,0.955528 -1.025658,1.428908 -0.648707,0.473381 -1.332479,0.675006 -0.675006,0.192859 -1.490273,0.192859 -0.8065,0 -1.481506,-0.192859 -0.666239,-0.201625 -1.314946,-0.675006 -0.648707,-0.47338 -1.025658,-1.428908 z m 1.613001,-4.952964 q -0.692539,0.824033 -0.692539,2.621126 0,1.797093 0.692539,2.621126 0.692538,0.824033 2.217876,0.824033 1.525337,0 2.217876,-0.815267 0.701304,-0.815266 0.701304,-2.629892 0,-1.814626 -0.701304,-2.629893 -0.692539,-0.815266 -2.217876,-0.815266 -1.525338,0 -2.217876,0.824033 z"
       style="stroke-width:1"
       id="path988" />
    <path
       d="M 86.315271,53.136307 V 40.767046 h 1.288647 v 12.369261 z"
       style="stroke-width:1"
       id="path990" />
    <path
       d="m 90.084784,48.542761 q 0,-1.332479 0.359418,-2.261707 0.359419,-0.937995 0.990593,-1.40261 0.639941,-0.464614 1.297414,-0.648707 0.657473,-0.192858 1.446441,-0.192858 1.183451,0 2.226642,0.341886 v -3.611719 h 1.288647 v 9.695537 q 0,0.359418 -0.105195,0.73637 -0.105196,0.376951 -0.438316,0.902929 -0.333119,0.517213 -1.13962,0.850332 -0.8065,0.324354 -1.989952,0.324354 -0.499679,0 -0.981826,-0.08766 -0.473381,-0.08766 -1.034425,-0.394484 -0.552277,-0.306821 -0.955527,-0.797734 -0.403251,-0.490914 -0.683772,-1.376311 -0.280522,-0.894163 -0.280522,-2.077615 z m 1.288647,0 q 0,1.130854 0.245457,1.893523 0.245456,0.762669 0.675005,1.095788 0.42955,0.33312 0.824033,0.447082 0.394484,0.113962 0.90293,0.113962 2.384436,0 2.384436,-1.577935 V 45.667412 Q 95.309504,45.22033 94.17865,45.22033 q -1.47274,0 -2.13898,0.788968 -0.666239,0.788968 -0.666239,2.533463 z"
       style="stroke-width:1"
       id="path992" />
    <path
       d="m 106.60928,50.44505 v -9.695537 h 1.28864 v 3.629252 q 1.07826,-0.359419 2.20911,-0.359419 0.61364,0 1.14839,0.105196 0.54351,0.105195 1.09579,0.412016 0.56104,0.306821 0.96429,0.788968 0.40325,0.482147 0.64871,1.314946 0.25422,0.824033 0.25422,1.902289 0,1.183452 -0.28052,2.077615 -0.27176,0.885397 -0.67501,1.376311 -0.40325,0.490913 -0.97306,0.797734 -0.56104,0.306821 -1.04319,0.394484 -0.47338,0.08766 -0.97306,0.08766 -0.97306,0 -1.69189,-0.236691 -0.71884,-0.245456 -1.07826,-0.561043 -0.35942,-0.315587 -0.58734,-0.753903 -0.21916,-0.438315 -0.26299,-0.718837 -0.0438,-0.289288 -0.0438,-0.561044 z m 1.28864,0.07013 q 0.009,1.577935 2.37567,1.577935 0.49968,0 0.90293,-0.113962 0.40325,-0.113962 0.8328,-0.447082 0.43832,-0.333119 0.67501,-1.095788 0.24545,-0.762669 0.24545,-1.893523 0,-1.744495 -0.66624,-2.533463 -0.66623,-0.788968 -2.15651,-0.788968 -1.11332,0 -2.20911,0.447082 z"
       style="stroke-width:1"
       id="path994" />
    <path
       d="m 116.12072,50.392452 q 0,-0.613641 0.21916,-1.095788 0.22792,-0.490914 0.55228,-0.788968 0.32435,-0.306821 0.82403,-0.517212 0.49968,-0.219158 0.8854,-0.315587 0.38571,-0.105196 0.91169,-0.157794 0.53475,-0.0526 0.7539,-0.06136 0.22793,-0.0088 0.53475,-0.0088 l 1.43767,0.08766 q 0,-1.200985 -0.66624,-1.70943 -0.65747,-0.517213 -1.95488,-0.517213 -1.45521,0 -2.62113,0.429549 V 44.48396 q 1.32371,-0.464614 2.69126,-0.464614 1.88475,0 2.87535,0.955528 0.99059,0.946761 0.99059,2.778919 v 2.691257 q 0,0.859098 -0.40325,1.47274 -0.39448,0.604875 -1.02566,0.876631 -0.62241,0.271755 -1.17468,0.376951 -0.54352,0.105196 -1.07826,0.105196 -0.41202,0 -0.85033,-0.0526 -0.42955,-0.0526 -0.98183,-0.23669 -0.54351,-0.192859 -0.94676,-0.482147 -0.40325,-0.298055 -0.69254,-0.841566 -0.28052,-0.552277 -0.28052,-1.271115 z m 1.28865,0 q 0,1.683131 2.43703,1.683131 0.009,0 0.0263,0 2.38444,0 2.38444,-1.630533 v -1.726963 q -0.59611,-0.105195 -1.59547,-0.105195 -3.2523,0 -3.2523,1.77956 z"
       style="stroke-width:1"
       id="path996" />
    <path
       d="m 125.44807,48.647957 q 0,-1.367544 0.37695,-2.323072 0.37695,-0.964294 1.01689,-1.437674 0.64871,-0.473381 1.32372,-0.66624 0.675,-0.201625 1.4815,-0.201625 1.35001,0 2.65619,0.49968 v 1.236049 q -1.21851,-0.49968 -2.51593,-0.49968 -1.59546,0 -2.32307,0.806501 -0.7276,0.8065 -0.7276,2.586061 0,1.797093 0.7276,2.594827 0.72761,0.797734 2.32307,0.797734 1.35002,0 2.51593,-0.499679 v 1.253582 q -1.25358,0.482147 -2.65619,0.482147 -0.63117,0 -1.18345,-0.105196 -0.54351,-0.105196 -1.12209,-0.420783 -0.56981,-0.315587 -0.97306,-0.8065 -0.40325,-0.49968 -0.66624,-1.341245 -0.25422,-0.841566 -0.25422,-1.954887 z"
       style="stroke-width:1"
       id="path998" />
    <path
       d="M 134.25821,53.136307 V 40.767046 h 1.29741 v 7.81078 l 4.02374,-4.400686 h 1.75326 l -3.82211,4.111398 4.31302,4.847769 h -1.72696 l -3.42763,-3.936073 -1.11332,1.209751 v 2.726322 z"
       style="stroke-width:1"
       id="path1000" />
    <path
       d="m 142.75277,48.770685 q 0,-0.01753 0,-0.06136 0,-0.04383 0,-0.07013 0,-4.619845 3.93607,-4.619845 0.82403,0 1.49027,0.262989 0.67501,0.254223 1.06949,0.604876 0.39449,0.350652 0.69254,0.920462 0.29806,0.561044 0.42078,0.955528 0.1315,0.394483 0.20163,0.955527 0.0701,0.543511 0.0701,0.683772 v 0.385718 l -0.0351,0.631174 h -6.5309 q 0.12273,1.350011 0.82404,1.963653 0.7013,0.604875 2.07761,0.604875 1.95489,0 3.07698,-0.666239 v 1.332479 q -1.29742,0.622408 -3.14711,0.622408 -0.0263,0 -0.0526,0 -0.78896,0 -1.44644,-0.184093 -0.65747,-0.192859 -1.29741,-0.657473 -0.63118,-0.464614 -0.99059,-1.393843 -0.35942,-0.937995 -0.35942,-2.270474 z m 1.31494,-0.499679 h 5.24226 q 0,-0.306821 -0.0789,-0.683772 -0.0701,-0.376952 -0.29805,-0.964294 -0.21916,-0.596109 -0.80651,-0.990593 -0.57857,-0.394484 -1.43767,-0.394484 -1.33248,0 -1.93735,0.692538 -0.59611,0.692539 -0.68378,2.340605 z"
       style="stroke-width:1"
       id="path1002" />
    <path
       d="m 152.43077,48.542761 q 0,-1.332479 0.35942,-2.261707 0.35942,-0.937995 0.99059,-1.40261 0.63994,-0.464614 1.29741,-0.648707 0.65748,-0.192858 1.44645,-0.192858 1.18345,0 2.22664,0.341886 v -3.611719 h 1.28864 v 9.695537 q 0,0.359418 -0.10519,0.73637 -0.1052,0.376951 -0.43832,0.902929 -0.33312,0.517213 -1.13962,0.850332 -0.8065,0.324354 -1.98995,0.324354 -0.49968,0 -0.98182,-0.08766 -0.47339,-0.08766 -1.03443,-0.394484 -0.55228,-0.306821 -0.95553,-0.797734 -0.40325,-0.490914 -0.68377,-1.376311 -0.28052,-0.894163 -0.28052,-2.077615 z m 1.28865,0 q 0,1.130854 0.24545,1.893523 0.24546,0.762669 0.67501,1.095788 0.42955,0.33312 0.82403,0.447082 0.39449,0.113962 0.90293,0.113962 2.38444,0 2.38444,-1.577935 v -4.847769 q -1.09579,-0.447082 -2.22664,-0.447082 -1.47274,0 -2.13898,0.788968 -0.66624,0.788968 -0.66624,2.533463 z"
       style="stroke-width:1"
       id="path1004" />
    <path
       d="M 169.02539,53.136307 V 41.161529 h 2.4458 l 6.15395,8.871505 v -8.871505 h 2.15651 v 11.974778 h -2.41074 l -6.18901,-8.941635 v 8.941635 z"
       style="font-weight:bold"
       id="path1006" />
    <path
       d="M 182.91122,53.136307 V 41.161529 h 7.74065 v 1.937355 h -5.58414 v 3.033142 h 4.83024 v 2.033784 h -4.83024 v 4.970497 z"
       style="font-weight:bold"
       id="path1008" />
    <path
       d="m 191.94929,43.318041 v -2.156512 h 9.81827 v 2.156512 h -3.83964 v 9.818266 h -2.15651 v -9.818266 z"
       style="font-weight:bold"
       id="path1010" />
  </g>
</svg>
