<?xml version="1.0" encoding="UTF-8"?>
<svg width="211px" height="67px" viewBox="0 0 211 67" version="1.1" xmlns="http://www.w3.org/2000/svg" xmlns:xlink="http://www.w3.org/1999/xlink">
    <title>BittrexButton</title>
    <defs>
        <linearGradient x1="29.7357383%" y1="48.4386243%" x2="86.1631498%" y2="52.0688999%" id="linearGradient-1">
            <stop stop-color="#6DFF86" offset="0%"></stop>
            <stop stop-color="#91AFFF" offset="100%"></stop>
        </linearGradient>
    </defs>
    <g id="Page-1" stroke="none" stroke-width="1" fill="none" fill-rule="evenodd">
        <g id="Artboard-1" transform="translate(-259.000000, -684.000000)">
            <g id="BittrexButton" transform="translate(260.396800, 685.400000)">
                <g id="Group-25" fill="#000001" fill-opacity="0.6" stroke="url(#linearGradient-1)" stroke-width="2">
                    <g id="Group-32">
                        <path d="M13.3564226,63.9966538 C12.8184262,63.9966538 12.2945412,63.9899613 11.7618365,63.9782495 C10.7740398,63.9531528 9.60455906,63.8996131 8.46330108,63.7055317 C7.38730824,63.5214891 6.43126214,63.2203283 5.5422451,62.7886646 C4.62147745,62.3469623 3.79419771,61.7747569 3.0780451,61.0887797 C2.3477811,60.4078218 1.74628347,59.6281502 1.27708003,58.7514378 C0.820224052,57.9065147 0.508009735,56.9996863 0.319270007,55.9790861 C0.104071439,54.8530796 0.0493898354,53.7120151 0.0264588404,52.8419952 C0.0141113815,52.4889679 0,51.3144411 0,51.3144411 L0,12.6638084 C0,12.6638084 0.0158753042,11.5076859 0.0264588404,11.1680435 C0.0493898354,10.2913312 0.104071439,9.15026665 0.317506085,8.03597198 C0.506245813,7.00867928 0.818460129,6.10185088 1.27708003,5.25525463 C1.74451954,4.37686918 2.34601718,3.59217819 3.06746156,2.91623967 C3.79596163,2.22357001 4.62676922,1.64969152 5.54048118,1.20464289 C6.44713744,0.767959845 7.40141962,0.470145352 8.45624539,0.294468263 C9.64512928,0.0936944473 10.8481246,0.0418278783 11.7653644,0.0200773816 L13.3564226,0 L194.63123,0 L196.241691,0.0217504967 C197.146584,0.0418278783 198.351343,0.0936944473 199.520824,0.292795148 C200.582705,0.470145352 201.545807,0.76963296 202.468338,1.20966224 C203.373231,1.64969152 204.200511,2.22357001 204.921955,2.90954721 C205.646927,3.58883196 206.248425,4.3785423 206.728212,5.25860086 C207.183304,6.11356269 207.49199,7.02039109 207.673674,8.01756771 C207.876525,9.07330336 207.940027,10.157482 207.978833,11.174736 C207.984125,11.6482275 207.984125,12.1585277 207.984125,12.6638084 C208,13.2912266 208,13.8885287 208,14.4908502 L208,49.5074767 C208,50.1148175 208,50.7087734 207.984125,51.3060755 C207.984125,51.8498379 207.984125,52.3484262 207.977069,52.8620726 C207.940027,53.8475374 207.876525,54.9300429 207.675438,55.9623549 C207.49199,56.9879745 207.183304,57.8948029 206.72292,58.7564572 C206.248425,59.626477 205.643399,60.411168 204.932538,61.0753948 C204.202274,61.7747569 203.374995,62.3452891 202.464811,62.7853184 C201.547571,63.2270208 200.614456,63.519816 199.520824,63.7055317 C198.391913,63.8996131 197.222432,63.9531528 196.224052,63.9782495 C195.708987,63.9899613 195.165698,63.9966538 194.64005,63.9966538 L192.727957,64 L13.3564226,63.9966538" id="Fill-4-Copy"></path>
                    </g>
                </g>
                <path d="M47.75,16.25 L47.75,38.75 L25.25,38.75 L25.25,29.75 L20.7492,29.75 L20.7492,43.25 L34.2492,43.25 L34.25,41.5687845 L38.75,41.5687845 L38.75,47.75 L16.25,47.75 L16.25,25.25 L38.75,25.25 L38.75,34.25 L43.2508,34.25 L43.2508,20.75 L29.7508,20.75 L29.75,22.4312155 L25.25,22.4312155 L25.25,16.25 L47.75,16.25 Z M34.2492,29.75 L29.75,29.75 L29.7508,34.25 L34.25,34.25 L34.2492,29.75 Z" id="Combined-Shape" fill="#FFFFFF" fill-rule="nonzero"></path>
                <g id="Group-33" transform="translate(58.500000, 15.091034)" fill="#FFFFFF" fill-rule="nonzero">
                    <path d="M5.36057045,10.9089661 C7.93866595,10.9089661 9.00399467,9.65187818 9.00399467,8.01127195 C9.00399467,6.28543943 7.8108265,5.34795016 6.80941751,5.28403044 L6.80941751,5.17749757 C7.74690678,4.92181867 8.57786318,4.30392802 8.57786318,2.89769411 C8.57786318,1.29970104 7.51253446,0 5.23273101,0 L1.4188542,0 L1.4188542,10.9089661 L5.36057045,10.9089661 Z M5.19011786,4.79397923 L2.73986181,4.79397923 L2.73986181,1.17186159 L5.23273101,1.17186159 C6.68157806,1.17186159 7.32077529,1.93889827 7.32077529,2.89769411 C7.32077529,4.04824913 6.38328602,4.79397923 5.19011786,4.79397923 Z M5.36057045,9.73710448 L2.73986181,9.73710448 L2.73986181,5.94453424 L5.42449018,5.94453424 C6.85203066,5.94453424 7.74690678,6.90333009 7.74690678,8.01127195 C7.74690678,8.9700678 7.08640298,9.73710448 5.36057045,9.73710448 Z M13.6544396,11.0154989 C14.8902209,11.0154989 15.6998707,10.3549951 16.083389,9.52403873 L16.1686153,9.52403873 L16.1686153,10.9089661 L17.4257032,10.9089661 L17.4257032,2.72724152 L16.1686153,2.72724152 L16.1686153,7.56383389 C16.1686153,9.09790725 14.9967537,9.8010242 14.0592645,9.8010242 C13.0152423,9.8010242 12.2695122,9.03398752 12.2695122,7.84081936 L12.2695122,2.72724152 L11.0124243,2.72724152 L11.0124243,7.92604566 C11.0124243,10.0140899 12.1203662,11.0154989 13.6544396,11.0154989 Z M20.5420628,13.9771128 C21.6766379,13.9771128 22.4756344,13.375202 22.9497057,12.1021342 L26.4226773,2.72724152 L25.0590566,2.72724152 L22.8005597,9.24705327 L22.7153334,9.24705327 L20.4568365,2.72724152 L19.0932157,2.72724152 L22.1187493,10.9515792 L21.884377,11.5907764 C21.4262856,12.837211 20.8616614,12.9543972 19.9454787,12.7200249 L19.6258801,13.8279667 C19.7537195,13.8918865 20.1159313,13.9771128 20.5420628,13.9771128 Z M35.6382613,11.0794187 C37.854145,11.0794187 39.3456052,9.39619929 39.3456052,6.86071694 C39.3456052,4.30392802 37.854145,2.62070864 35.6382613,2.62070864 C33.4223776,2.62070864 31.9309174,4.30392802 31.9309174,6.86071694 C31.9309174,9.39619929 33.4223776,11.0794187 35.6382613,11.0794187 Z M35.6382613,9.95017022 C33.9550419,9.95017022 33.1880052,8.50132316 33.1880052,6.86071694 C33.1880052,5.22011071 33.9550419,3.74995708 35.6382613,3.74995708 C37.3214807,3.74995708 38.0885173,5.22011071 38.0885173,6.86071694 C38.0885173,8.50132316 37.3214807,9.95017022 35.6382613,9.95017022 Z M42.5258872,10.9089661 L42.5258872,5.98714739 C42.5258872,4.55960691 43.4101101,3.74995708 44.6139315,3.74995708 C45.7804665,3.74995708 46.48891,4.51166712 46.48891,5.79538822 L46.48891,10.9089661 L47.7459979,10.9089661 L47.7459979,5.71016192 C47.7459979,3.62211764 46.6327294,2.62070864 44.9761433,2.62070864 C43.740362,2.62070864 42.9733253,3.17467958 42.5898069,4.00563598 L42.4832741,4.00563598 L42.4832741,2.72724152 L41.2687993,2.72724152 L41.2687993,10.9089661 L42.5258872,10.9089661 Z" id="Buyon"></path>
                    <path d="M7.47860759,32.9089661 C10.7456157,32.9089661 12.4856526,31.2044401 12.4856526,28.8891257 C12.4856526,26.7371617 10.944477,25.4374607 9.28966641,25.3593366 L9.28966641,25.2172927 C10.8024332,24.8763875 11.9174773,23.8039566 11.9174773,22.0923285 C11.9174773,19.9119557 10.2981776,18.363678 7.08798707,18.363678 L1.26419008,18.363678 L1.26419008,32.9089661 L7.47860759,32.9089661 Z M6.61924243,24.450256 L4.33943897,24.450256 L4.33943897,20.849445 L6.67605996,20.849445 C8.03968072,20.849445 8.81381959,21.5525619 8.81381959,22.6036863 C8.81381959,23.7542413 7.87633032,24.450256 6.61924243,24.450256 Z M6.84651256,30.3947903 L4.33943897,30.3947903 L4.33943897,26.5311981 L6.91753447,26.5311981 C8.39479029,26.5311981 9.31097299,27.3834611 9.31097299,28.5837315 C9.31097299,29.677469 8.56524289,30.3947903 6.84651256,30.3947903 Z M15.9519044,20.5937661 C16.8538827,20.5937661 17.5925106,19.9048535 17.5925106,19.0596927 C17.5925106,18.2216341 16.8538827,17.5327216 15.9519044,17.5327216 C15.0570283,17.5327216 14.3184004,18.2216341 14.3184004,19.0596927 C14.3184004,19.9048535 15.0570283,20.5937661 15.9519044,20.5937661 Z M17.457569,32.9089661 L17.457569,22 L14.4320354,22 L14.4320354,32.9089661 L17.457569,32.9089661 Z M24.2404552,33.0581121 C25.0216963,33.0297033 25.5756672,32.8734551 25.8810614,32.7740244 L25.4052146,30.5226297 C25.2560686,30.5510385 24.93647,30.6220604 24.6523823,30.6220604 C24.048696,30.6220604 23.6296668,30.3947903 23.6296668,29.5567317 L23.6296668,24.2727013 L25.6822001,24.2727013 L25.6822001,22 L23.6296668,22 L23.6296668,19.3863935 L20.6041332,19.3863935 L20.6041332,22 L19.112673,22 L19.112673,24.2727013 L20.6041332,24.2727013 L20.6041332,29.9544544 C20.5899288,32.092214 22.0458781,33.1504406 24.2404552,33.0581121 Z M32.0176749,33.0581121 C32.798916,33.0297033 33.3528869,32.8734551 33.6582811,32.7740244 L33.1824343,30.5226297 C33.0332883,30.5510385 32.7136897,30.6220604 32.429602,30.6220604 C31.8259157,30.6220604 31.4068864,30.3947903 31.4068864,29.5567317 L31.4068864,24.2727013 L33.4594198,24.2727013 L33.4594198,22 L31.4068864,22 L31.4068864,19.3863935 L28.3813529,19.3863935 L28.3813529,22 L26.8898927,22 L26.8898927,24.2727013 L28.3813529,24.2727013 L28.3813529,29.9544544 C28.3671485,32.092214 29.8230978,33.1504406 32.0176749,33.0581121 Z M38.4596826,32.9089661 L38.4596826,26.7371617 C38.4596826,25.3948475 39.439785,24.4715626 40.774997,24.4715626 C41.1940263,24.4715626 41.7693038,24.5425845 42.0533915,24.634913 L42.0533915,21.9502847 C41.7835082,21.8863649 41.4070921,21.8437518 41.1016978,21.8437518 C39.8801209,21.8437518 38.8787119,22.5539709 38.4809892,23.9033873 L38.3673541,23.9033873 L38.3673541,22 L35.4341491,22 L35.4341491,32.9089661 L38.4596826,32.9089661 Z M48.0763687,33.1220318 C50.7752014,33.1220318 52.5933624,31.8081264 53.0194939,29.7840018 L50.2212305,29.5993448 C49.9158363,30.4303012 49.1345952,30.8635349 48.126084,30.8635349 C46.6133172,30.8635349 45.6545214,29.8621259 45.6545214,28.2357241 L45.6545214,28.2286219 L53.0834137,28.2286219 L53.0834137,27.3976655 C53.0834137,23.6903216 50.8391212,21.8579562 47.9556314,21.8579562 C44.7454409,21.8579562 42.6644988,24.1377596 42.6644988,27.5041984 C42.6644988,30.9629656 44.7170321,33.1220318 48.0763687,33.1220318 Z M50.2354349,26.3536434 L45.6545214,26.3536434 C45.7184411,25.1107599 46.6630326,24.1164531 48.0053468,24.1164531 C49.3192522,24.1164531 50.2283327,25.0539423 50.2354349,26.3536434 Z M57.295379,32.9089661 L59.4118321,29.1377024 L61.5637961,32.9089661 L64.6532493,32.9089661 L61.4075479,27.454483 L64.568023,22 L61.4643654,22 L59.4118321,25.8138768 L57.4090141,22 L54.2840498,22 L57.4090141,27.454483 L54.1704148,32.9089661 L57.295379,32.9089661 Z M77.6793152,33.1078274 C81.3511481,33.1078274 83.9718568,30.7854108 83.9718568,26.9573296 L83.9718568,25.1249642 L77.8852787,25.1249642 L77.8852787,27.4402786 L81.010243,27.4402786 C80.9676298,29.2442353 79.7389507,30.3876881 77.6935195,30.3876881 C75.3853073,30.3876881 73.9293581,28.6618556 73.9293581,25.6221176 C73.9293581,22.5965841 75.4421249,20.8849559 77.6651108,20.8849559 C79.2488995,20.8849559 80.3213304,21.701708 80.7119509,23.0653287 L83.8369152,23.0653287 C83.4391924,20.1889412 80.9037101,18.1648166 77.6153954,18.1648166 C73.7731099,18.1648166 70.811496,20.9346713 70.811496,25.6505264 C70.811496,30.2527465 73.5813507,33.1078274 77.6793152,33.1078274 Z M89.2562925,32.9089661 L89.2562925,18.363678 L86.2307589,18.363678 L86.2307589,32.9089661 L89.2562925,32.9089661 Z M96.607354,33.1220318 C99.9169752,33.1220318 101.976611,30.8564327 101.976611,27.4970962 C101.976611,24.1164531 99.9169752,21.8579562 96.607354,21.8579562 C93.2977328,21.8579562 91.2380973,24.1164531 91.2380973,27.4970962 C91.2380973,30.8564327 93.2977328,33.1220318 96.607354,33.1220318 Z M96.6215584,30.7783086 C95.0945872,30.7783086 94.3133462,29.3791769 94.3133462,27.4757896 C94.3133462,25.5724023 95.0945872,24.1661684 96.6215584,24.1661684 C98.1201208,24.1661684 98.9013619,25.5724023 98.9013619,27.4757896 C98.9013619,29.3791769 98.1201208,30.7783086 96.6215584,30.7783086 Z M110.229729,33.0865209 C112.715496,33.0865209 114.654394,31.1192138 114.654394,27.4686874 C114.654394,23.7187303 112.63027,21.8579562 110.236831,21.8579562 C108.411568,21.8579562 107.537998,22.9445915 107.133173,23.8323654 L107.040845,23.8323654 L107.040845,18.363678 L104.015311,18.363678 L104.015311,32.9089661 L106.998232,32.9089661 L106.998232,31.161827 L107.133173,31.161827 C107.552203,32.0709075 108.468385,33.0865209 110.229729,33.0865209 Z M109.270933,30.6788779 C107.814984,30.6788779 106.976925,29.4004835 106.976925,27.454483 C106.976925,25.5084826 107.800779,24.2655991 109.270933,24.2655991 C110.769495,24.2655991 111.564941,25.5653001 111.564941,27.454483 C111.564941,29.3578703 110.755291,30.6788779 109.270933,30.6788779 Z M119.782553,33.1149296 C121.39475,33.1149296 122.438772,32.4118127 122.971437,31.3961993 L123.056663,31.3961993 L123.056663,32.9089661 L125.925948,32.9089661 L125.925948,25.5510957 C125.925948,22.9516937 123.724269,21.8579562 121.29532,21.8579562 C118.681713,21.8579562 116.962983,23.1079419 116.543954,25.0965555 L119.342217,25.3238256 C119.548181,24.5994021 120.19448,24.0667377 121.281115,24.0667377 C122.310933,24.0667377 122.900415,24.5851977 122.900415,25.4800738 L122.900415,25.522687 C122.900415,26.2258039 122.154685,26.3181324 120.2584,26.5027894 C118.099333,26.7016507 116.160435,27.4260743 116.160435,29.8621259 C116.160435,32.0211921 117.701611,33.1149296 119.782553,33.1149296 Z M120.64902,31.0268853 C119.718633,31.0268853 119.051027,30.5936517 119.051027,29.7626953 C119.051027,28.9104323 119.754144,28.491403 120.819473,28.342257 C121.479977,28.2499285 122.55951,28.0936803 122.921721,27.8522058 L122.921721,29.009863 C122.921721,30.1533158 121.97713,31.0268853 120.64902,31.0268853 Z M131.309774,32.9089661 L131.309774,18.363678 L128.28424,18.363678 L128.28424,32.9089661 L131.309774,32.9089661 Z" id="BittrexGlobal"></path>
                </g>
            </g>
        </g>
    </g>
</svg>