<?xml version="1.0" encoding="UTF-8" standalone="no"?><!DOCTYPE svg PUBLIC "-//W3C//DTD SVG 1.1//EN" "http://www.w3.org/Graphics/SVG/1.1/DTD/svg11.dtd"><svg width="32px" height="32px" version="1.1" xmlns="http://www.w3.org/2000/svg" xmlns:xlink="http://www.w3.org/1999/xlink" xml:space="preserve" xmlns:serif="http://www.serif.com/" style="fill-rule:evenodd;clip-rule:evenodd;stroke-linejoin:round;stroke-miterlimit:2;"><g><g><path d="M22.707,27.429l0,-7.429c0,-1.771 -0.036,-4.05 -2.464,-4.05c-2.472,0 -2.85,1.929 -2.85,3.921l0,7.558l-4.743,0l0,-15.272l4.55,0l0,2.086l0.064,0c0.636,-1.2 2.186,-2.464 4.493,-2.464c4.8,0 5.693,3.164 5.693,7.278l-0,8.372l-4.743,0Zm-18.157,-20.109c0.001,-1.508 1.242,-2.749 2.75,-2.75c1.507,0.003 2.747,1.243 2.75,2.75c-0.04,1.481 -1.269,2.677 -2.75,2.677c-1.481,-0 -2.71,-1.196 -2.75,-2.677Zm0.379,20.108l0,-15.271l4.75,0l0,15.273l-4.75,-0.002Zm24.785,-27.428l-27.434,0c-1.26,0 -2.28,1.036 -2.28,2.307l0,27.386c0,1.271 1.021,2.307 2.279,2.307l27.435,0c1.257,0 2.286,-1.036 2.286,-2.307l0,-27.386c0,-1.271 -1.029,-2.307 -2.286,-2.307Z" style="fill:#fff;fill-rule:nonzero;"/></g></g></svg>