<?xml version="1.0" encoding="UTF-8" standalone="no"?><!DOCTYPE svg PUBLIC "-//W3C//DTD SVG 1.1//EN" "http://www.w3.org/Graphics/SVG/1.1/DTD/svg11.dtd"><svg width="31px" height="23px" version="1.1" xmlns="http://www.w3.org/2000/svg" xmlns:xlink="http://www.w3.org/1999/xlink" xml:space="preserve" xmlns:serif="http://www.serif.com/" style="fill-rule:evenodd;clip-rule:evenodd;stroke-linejoin:round;stroke-miterlimit:2;"><g><g><path d="M11.625,5.652c-0,-0.355 0.291,-0.648 0.646,-0.65c0.124,-0 0.245,0.035 0.349,0.102l9.041,5.853c0.187,0.119 0.3,0.326 0.3,0.548c-0,0.22 -0.113,0.426 -0.298,0.546l-9.042,5.853c-0.104,0.067 -0.226,0.103 -0.35,0.103c-0.354,0 -0.646,-0.292 -0.646,-0.646c-0,-0.001 -0,-0.002 -0,-0.003l-0,-11.706Zm15.246,-4.856l-6.839,-0.598c-3.016,-0.264 -6.048,-0.264 -9.064,-0l-6.839,0.598c-2.353,0.204 -4.129,2.153 -4.129,4.532l-0,12.345c-0,2.378 1.776,4.326 4.13,4.532l6.838,0.597c1.503,0.133 3.017,0.198 4.532,0.198c1.515,0 3.029,-0.065 4.532,-0.198l6.839,-0.597c2.353,-0.207 4.129,-2.155 4.129,-4.532l-0,-12.345c-0,-2.379 -1.776,-4.328 -4.13,-4.532l0.001,-0Z" style="fill:#fff;fill-rule:nonzero;"/></g></g></svg>