<?xml version="1.0" encoding="UTF-8" standalone="no"?><!DOCTYPE svg PUBLIC "-//W3C//DTD SVG 1.1//EN" "http://www.w3.org/Graphics/SVG/1.1/DTD/svg11.dtd"><svg width="32px" height="32px" version="1.1" xmlns="http://www.w3.org/2000/svg" xmlns:xlink="http://www.w3.org/1999/xlink" xml:space="preserve" xmlns:serif="http://www.serif.com/" style="fill-rule:evenodd;clip-rule:evenodd;stroke-linejoin:round;stroke-miterlimit:2;"><g><g><path d="M29.118,16.005c-0,-2.329 0.192,-7.329 -0.643,-9.436c-0.548,-1.391 -1.65,-2.494 -3.041,-3.043c-2.099,-0.829 -7.103,-0.643 -9.43,-0.643c-2.328,0 -7.325,-0.193 -9.43,0.643c-1.391,0.549 -2.494,1.652 -3.042,3.043c-0.828,2.1 -0.643,7.107 -0.643,9.436c-0,2.329 -0.192,7.329 0.643,9.436c0.548,1.391 1.65,2.494 3.041,3.043c2.099,0.829 7.103,0.643 9.43,0.643c2.328,0 7.325,0.193 9.431,-0.643c1.391,-0.549 2.493,-1.652 3.041,-3.043c0.835,-2.1 0.643,-7.107 0.643,-9.436Zm2.77,6.593c-0.129,2.563 -0.714,4.834 -2.585,6.705c-1.87,1.878 -4.14,2.463 -6.703,2.585c-2.641,0.15 -10.559,0.15 -13.2,0c-2.563,-0.129 -4.826,-0.715 -6.703,-2.585c-1.878,-1.871 -2.463,-4.143 -2.585,-6.705c-0.15,-2.642 -0.15,-10.561 -0,-13.203c0.129,-2.563 0.708,-4.834 2.585,-6.705c1.877,-1.87 4.147,-2.456 6.703,-2.578c2.641,-0.15 10.559,-0.15 13.2,0c2.563,0.129 4.833,0.715 6.703,2.585c1.878,1.871 2.463,4.142 2.585,6.705c0.15,2.642 0.15,10.554 0,13.196Zm-5.443,-15.143c0,0.002 0,0.003 0,0.005c0,1.045 -0.859,1.904 -1.904,1.904l-0.005,0c-1.047,0 -1.909,-0.862 -1.909,-1.909c0,-1.047 0.862,-1.909 1.909,-1.909c1.047,0 1.909,0.862 1.909,1.909Zm-10.441,13.869c2.934,0 5.332,-2.39 5.332,-5.329c-0.004,-2.923 -2.409,-5.327 -5.332,-5.329c-2.923,0.002 -5.329,2.406 -5.333,5.329c0,2.94 2.398,5.329 5.333,5.329Zm8.202,-5.329c0,4.539 -3.662,8.2 -8.202,8.2c-0.005,0 -0.01,0 -0.015,0c-4.492,0 -8.188,-3.696 -8.188,-8.188c-0,-0.004 -0,-0.008 0,-0.012c0,-4.539 3.662,-8.2 8.203,-8.2c4.54,0 8.202,3.661 8.202,8.2Z" style="fill:#fff;fill-rule:nonzero;"/></g></g></svg>