<?xml version="1.0" encoding="UTF-8" standalone="no"?><!DOCTYPE svg PUBLIC "-//W3C//DTD SVG 1.1//EN" "http://www.w3.org/Graphics/SVG/1.1/DTD/svg11.dtd"><svg width="28px" height="23px" version="1.1" xmlns="http://www.w3.org/2000/svg" xmlns:xlink="http://www.w3.org/1999/xlink" xml:space="preserve" xmlns:serif="http://www.serif.com/" style="fill-rule:evenodd;clip-rule:evenodd;stroke-linejoin:round;stroke-miterlimit:2;"><g><g><path d="M27.728,2.21c-0.19,-0.201 -0.381,-0.201 -0.572,-0.1c-0.287,0.1 -0.668,0.3 -1.05,0.501c0.381,-0.602 0.668,-1.305 0.763,-1.908c0.096,-0.2 0,-0.402 -0.19,-0.502c-0.178,-0.1 -0.395,-0.1 -0.573,0c-0.955,0.602 -2.291,1.105 -2.769,1.205c-1.05,-0.904 -2.386,-1.406 -3.627,-1.406c-1.623,0 -3.15,0.703 -4.39,1.908c-1.146,1.206 -1.814,2.813 -1.814,4.62c-4.678,-0.502 -7.446,-3.515 -9.641,-6.327c-0.096,-0.101 -0.287,-0.201 -0.382,-0.201c-0.191,0 -0.286,0.1 -0.382,0.2c-1.336,2.31 -1.05,4.621 -0.764,5.726c0.167,0.715 0.458,1.395 0.86,2.009c-0.478,-0.201 -0.86,-0.402 -1.241,-0.804c-0.096,-0.1 -0.382,-0.1 -0.478,-0.1c-0.181,0.101 -0.292,0.295 -0.286,0.502c-0,2.912 1.91,4.82 3.436,5.825c-0.286,-0.1 -0.572,-0.1 -0.954,-0.301c-0.191,-0.1 -0.382,0 -0.477,0.1c-0.096,0.1 -0.191,0.402 -0.096,0.502c0.86,2.11 2.768,3.717 4.868,4.118c-1.909,1.206 -4.963,1.909 -7.254,1.708c-0.191,0 -0.478,0.1 -0.478,0.301c-0.095,0.2 -0,0.502 0.191,0.603c2.864,1.707 5.919,2.611 8.878,2.611c4.677,0 9.354,-2.21 12.6,-6.127c2.863,-3.314 4.39,-7.532 4.104,-11.249c0.477,-0.401 0.764,-1.104 1.146,-1.807c0.19,-0.302 0.382,-0.703 0.572,-1.005c0.096,-0.2 0.096,-0.502 -0,-0.602Z" style="fill:#fff;fill-rule:nonzero;"/></g></g></svg>