<?xml version="1.0" encoding="UTF-8" standalone="no"?>
<svg
   xmlns:dc="http://purl.org/dc/elements/1.1/"
   xmlns:cc="http://creativecommons.org/ns#"
   xmlns:rdf="http://www.w3.org/1999/02/22-rdf-syntax-ns#"
   xmlns:svg="http://www.w3.org/2000/svg"
   xmlns="http://www.w3.org/2000/svg"
   xmlns:xlink="http://www.w3.org/1999/xlink"
   xmlns:sodipodi="http://sodipodi.sourceforge.net/DTD/sodipodi-0.dtd"
   xmlns:inkscape="http://www.inkscape.org/namespaces/inkscape"
   width="211px"
   height="67px"
   viewBox="0 0 211 67"
   version="1.1"
   id="svg21"
   sodipodi:docname="img-enter-app.svg"
   inkscape:version="1.0.2 (1.0.2+r75+1)">
  <metadata
     id="metadata25">
    <rdf:RDF>
      <cc:Work
         rdf:about="">
        <dc:format>image/svg+xml</dc:format>
        <dc:type
           rdf:resource="http://purl.org/dc/dcmitype/StillImage" />
      </cc:Work>
    </rdf:RDF>
  </metadata>
  <sodipodi:namedview
     pagecolor="#ffffff"
     bordercolor="#666666"
     borderopacity="1"
     objecttolerance="10"
     gridtolerance="10"
     guidetolerance="10"
     inkscape:pageopacity="0"
     inkscape:pageshadow="2"
     inkscape:window-width="1920"
     inkscape:window-height="1025"
     id="namedview23"
     showgrid="false"
     inkscape:zoom="4.2124798"
     inkscape:cx="103.64115"
     inkscape:cy="71.010763"
     inkscape:window-x="0"
     inkscape:window-y="27"
     inkscape:window-maximized="1"
     inkscape:current-layer="svg21"
     inkscape:document-rotation="0" />
  <title
     id="title2">BittrexButton</title>
  <defs
     id="defs9">
    <linearGradient
       x1="29.7357383%"
       y1="48.4386243%"
       x2="86.1631498%"
       y2="52.0688999%"
       id="linearGradient-1">
      <stop
         stop-color="#6DFF86"
         offset="0%"
         id="stop4"
         style="stop-color:#fef301;stop-opacity:1" />
      <stop
         stop-color="#91AFFF"
         offset="100%"
         id="stop6"
         style="stop-color:#cd7604;stop-opacity:1" />
    </linearGradient>
    <linearGradient
       inkscape:collect="always"
       xlink:href="#linearGradient-1"
       id="linearGradient850"
       x1="34.446827"
       y1="55.242304"
       x2="100.87797"
       y2="59.516172"
       gradientTransform="matrix(1.7837652,0,0,0.56061191,1.3968,1.4)"
       gradientUnits="userSpaceOnUse" />
  </defs>
  <path
     d="m 14.753223,65.396654 c -0.537997,0 -1.061882,-0.0067 -1.594587,-0.01841 C 12.17084,65.353153 11.001359,65.299613 9.8601011,65.105532 8.7841082,64.921489 7.8280621,64.620328 6.9390451,64.188665 6.0182775,63.746962 5.1909977,63.174757 4.4748451,62.48878 3.7445811,61.807822 3.1430835,61.02815 2.67388,60.151438 2.2170241,59.306515 1.9048097,58.399686 1.71607,57.379086 1.5008714,56.25308 1.4461898,55.112015 1.4232588,54.241995 1.4109114,53.888968 1.3968,52.714441 1.3968,52.714441 V 14.063808 c 0,0 0.015875,-1.156122 0.026459,-1.495764 0.022931,-0.876713 0.077613,-2.017777 0.2910473,-3.132072 C 1.9030458,8.4086793 2.2152601,7.5018509 2.67388,6.6552546 3.1413195,5.7768692 3.7428172,4.9921782 4.4642616,4.3162397 5.1927616,3.62357 6.0235692,3.0496915 6.9372812,2.6046429 7.8439374,2.1679598 8.7982196,1.8701454 9.8530454,1.6944683 11.041929,1.4936944 12.244925,1.4418279 13.162164,1.4200774 L 14.753223,1.4 H 196.02803 l 1.61046,0.021751 c 0.90489,0.020077 2.10965,0.071944 3.27913,0.2710446 1.06188,0.1773503 2.02499,0.4768379 2.94752,0.9168671 0.90489,0.4400293 1.73217,1.0139078 2.45361,1.699885 0.72498,0.6792848 1.32647,1.4689951 1.80626,2.3490537 0.45509,0.8549618 0.76378,1.7617902 0.94546,2.7589668 0.20285,1.0557353 0.26636,2.1399143 0.30516,3.1571683 0.005,0.473492 0.005,0.983792 0.005,1.489072 0.0162,0.627419 0.0162,1.224721 0.0162,1.827042 v 35.016627 c 0,0.60734 0,1.201296 -0.0159,1.798598 0,0.543763 0,1.042351 -0.007,1.555998 -0.037,0.985464 -0.10055,2.06797 -0.30163,3.100282 -0.18345,1.025619 -0.49214,1.932448 -0.95252,2.794102 -0.4745,0.87002 -1.07952,1.654711 -1.79038,2.318938 -0.73027,0.699362 -1.55754,1.269894 -2.46773,1.709923 -0.91724,0.441703 -1.85035,0.734498 -2.94399,0.920214 -1.12891,0.194081 -2.29839,0.247621 -3.29677,0.272717 -0.51506,0.01171 -1.05835,0.01841 -1.584,0.01841 L 194.12476,65.4 14.753223,65.396654"
     id="Fill-4-Copy"
     style="fill:#000001;fill-opacity:0.6;fill-rule:evenodd;stroke:url(#linearGradient850);stroke-width:2" />
  <text
     xml:space="preserve"
     style="font-size:64px;line-height:1.25;font-family:'Maven Pro';-inkscape-font-specification:'Maven Pro';letter-spacing:0px;word-spacing:0px"
     x="30.260195"
     y="-52.264889"
     id="text849"><tspan
       sodipodi:role="line"
       id="tspan847"
       x="30.260195"
       y="-52.264889" /></text>
  <text
     xml:space="preserve"
     style="font-size:30.1859px;line-height:1.25;font-family:'Maven Pro';-inkscape-font-specification:'Maven Pro';letter-spacing:0px;word-spacing:0px;fill:#ffffff;fill-opacity:1;stroke-width:0.999999"
     x="54.767632"
     y="32.64127"
     id="text886"><tspan
       sodipodi:role="line"
       id="tspan884"
       x="54.767632"
       y="32.64127"
       style="font-weight:bold;fill:#ffffff;fill-opacity:1;stroke-width:0.999999">Launch</tspan></text>
  <text
     xml:space="preserve"
     style="font-size:20.7465px;line-height:1.25;font-family:'Maven Pro';-inkscape-font-specification:'Maven Pro';letter-spacing:0px;word-spacing:0px;fill:#ffffff;fill-opacity:1;stroke-width:1"
     x="55.505939"
     y="52.250332"
     id="text890"><tspan
       sodipodi:role="line"
       id="tspan888"
       x="55.505939"
       y="52.250332"
       style="font-weight:bold;fill:#ffffff;fill-opacity:1;stroke-width:1">Web3 App</tspan></text>
</svg>
