<?xml version="1.0" encoding="UTF-8" standalone="no"?>
<svg
   xmlns:dc="http://purl.org/dc/elements/1.1/"
   xmlns:cc="http://creativecommons.org/ns#"
   xmlns:rdf="http://www.w3.org/1999/02/22-rdf-syntax-ns#"
   xmlns:svg="http://www.w3.org/2000/svg"
   xmlns="http://www.w3.org/2000/svg"
   xmlns:xlink="http://www.w3.org/1999/xlink"
   xmlns:sodipodi="http://sodipodi.sourceforge.net/DTD/sodipodi-0.dtd"
   xmlns:inkscape="http://www.inkscape.org/namespaces/inkscape"
   width="211px"
   height="67px"
   viewBox="0 0 211 67"
   version="1.1"
   id="svg21"
   sodipodi:docname="img-buy-on-binance.svg"
   inkscape:version="1.0.2 (1.0.2+r75+1)">
  <metadata
     id="metadata25">
    <rdf:RDF>
      <cc:Work
         rdf:about="">
        <dc:format>image/svg+xml</dc:format>
        <dc:type
           rdf:resource="http://purl.org/dc/dcmitype/StillImage" />
      </cc:Work>
    </rdf:RDF>
  </metadata>
  <sodipodi:namedview
     pagecolor="#ffffff"
     bordercolor="#666666"
     borderopacity="1"
     objecttolerance="10"
     gridtolerance="10"
     guidetolerance="10"
     inkscape:pageopacity="0"
     inkscape:pageshadow="2"
     inkscape:window-width="1920"
     inkscape:window-height="1025"
     id="namedview23"
     showgrid="false"
     inkscape:zoom="2.978673"
     inkscape:cx="103.90127"
     inkscape:cy="44.544515"
     inkscape:window-x="0"
     inkscape:window-y="27"
     inkscape:window-maximized="1"
     inkscape:current-layer="svg21"
     inkscape:document-rotation="0" />
  <title
     id="title2">BittrexButton</title>
  <defs
     id="defs9">
    <linearGradient
       x1="29.7357383%"
       y1="48.4386243%"
       x2="86.1631498%"
       y2="52.0688999%"
       id="linearGradient-1">
      <stop
         stop-color="#6DFF86"
         offset="0%"
         id="stop4" />
      <stop
         stop-color="#91AFFF"
         offset="100%"
         id="stop6" />
    </linearGradient>
    <linearGradient
       inkscape:collect="always"
       xlink:href="#linearGradient-1"
       id="linearGradient850"
       x1="34.446827"
       y1="55.242304"
       x2="100.87797"
       y2="59.516172"
       gradientTransform="scale(1.7837652,0.56061191)"
       gradientUnits="userSpaceOnUse" />
    <linearGradient
       inkscape:collect="always"
       xlink:href="#linearGradient-1"
       id="linearGradient852"
       x1="34.446827"
       y1="55.242304"
       x2="100.87797"
       y2="59.516172"
       gradientTransform="scale(1.7837652,0.56061191)"
       gradientUnits="userSpaceOnUse" />
    <linearGradient
       inkscape:collect="always"
       xlink:href="#linearGradient-1"
       id="linearGradient854"
       x1="34.446827"
       y1="55.242304"
       x2="100.87797"
       y2="59.516172"
       gradientTransform="scale(1.7837652,0.56061191)"
       gradientUnits="userSpaceOnUse" />
  </defs>
  <g
     id="Group-25"
     fill="#000001"
     fill-opacity="0.6"
     stroke="url(#linearGradient-1)"
     stroke-width="2"
     style="fill-rule:evenodd;stroke:url(#linearGradient854)"
     transform="translate(1.3968,1.4)">
    <g
       id="Group-32"
       style="stroke:url(#linearGradient852)">
      <path
         d="m 13.356423,63.996654 c -0.537997,0 -1.061882,-0.0067 -1.594587,-0.01841 C 10.77404,63.953153 9.6045591,63.899613 8.4633011,63.705532 7.3873082,63.521489 6.4312621,63.220328 5.5422451,62.788665 4.6214775,62.346962 3.7941977,61.774757 3.0780451,61.08878 2.3477811,60.407822 1.7462835,59.62815 1.27708,58.751438 0.82022405,57.906515 0.50800973,56.999686 0.31927001,55.979086 0.10407144,54.85308 0.04938984,53.712015 0.02645884,52.841995 0.01411138,52.488968 0,51.314441 0,51.314441 V 12.663808 c 0,0 0.0158753,-1.156122 0.02645884,-1.495764 0.022931,-0.876713 0.0776126,-2.0177773 0.29104725,-3.132072 C 0.50624581,7.0086793 0.81846013,6.1018509 1.27708,5.2552546 1.7445195,4.3768692 2.3460172,3.5921782 3.0674616,2.9162397 3.7959616,2.22357 4.6267692,1.6496915 5.5404812,1.2046429 6.4471374,0.76795984 7.4014196,0.47014535 8.4562454,0.29446826 9.6451293,0.09369445 10.848125,0.04182788 11.765364,0.02007738 L 13.356423,0 H 194.63123 l 1.61046,0.0217505 c 0.90489,0.02007738 2.10965,0.07194395 3.27913,0.27104465 1.06188,0.1773502 2.02499,0.47683781 2.94752,0.91686705 0.90489,0.4400293 1.73217,1.0139078 2.45361,1.699885 0.72498,0.6792848 1.32647,1.4689951 1.80626,2.3490537 0.45509,0.8549618 0.76378,1.7617902 0.94546,2.7589668 0.20285,1.0557357 0.26636,2.1399143 0.30516,3.1571683 0.005,0.473492 0.005,0.983792 0.005,1.489072 C 208,13.291227 208,13.888529 208,14.49085 v 35.016627 c 0,0.60734 0,1.201296 -0.0159,1.798598 0,0.543763 0,1.042351 -0.007,1.555998 -0.037,0.985464 -0.10055,2.06797 -0.30163,3.100282 -0.18345,1.025619 -0.49214,1.932448 -0.95252,2.794102 -0.4745,0.87002 -1.07952,1.654711 -1.79038,2.318938 -0.73027,0.699362 -1.55754,1.269894 -2.46773,1.709923 -0.91724,0.441703 -1.85035,0.734498 -2.94399,0.920214 -1.12891,0.194081 -2.29839,0.247621 -3.29677,0.272717 -0.51506,0.01171 -1.05835,0.01841 -1.584,0.01841 L 192.72796,64 13.356423,63.996654"
         id="Fill-4-Copy"
         style="stroke:url(#linearGradient850)" />
    </g>
  </g>
  <path
     d="m 65.25737,25.4 c 2.578096,0 3.643425,-1.257088 3.643425,-2.897694 0,-1.725833 -1.193168,-2.663322 -2.194578,-2.727242 v -0.106532 c 0.93749,-0.255679 1.768446,-0.87357 1.768446,-2.279804 0,-1.597993 -1.065329,-2.897694 -3.345132,-2.897694 H 61.315654 V 25.4 Z m -0.170452,-6.114987 h -2.450256 v -3.622117 h 2.492869 c 1.448847,0 2.088044,0.767036 2.088044,1.725832 0,1.150555 -0.937489,1.896285 -2.130657,1.896285 z m 0.170452,4.943125 h -2.620708 v -3.79257 h 2.684628 c 1.427541,0 2.322417,0.958796 2.322417,2.066738 0,0.958796 -0.660504,1.725832 -2.386337,1.725832 z m 8.29387,1.278395 c 1.235781,0 2.045431,-0.660504 2.428949,-1.49146 h 0.08523 V 25.4 h 1.257088 v -8.181725 h -1.257088 v 4.836593 c 0,1.534073 -1.171861,2.23719 -2.109351,2.23719 -1.044022,0 -1.789752,-0.767037 -1.789752,-1.960205 v -5.113578 h -1.257088 v 5.198805 c 0,2.088044 1.107942,3.089453 2.642016,3.089453 z m 6.887623,2.961614 c 1.134575,0 1.933571,-0.601911 2.407643,-1.874979 l 3.472971,-9.374893 h -1.36362 l -2.258497,6.519812 h -0.08523 l -2.258493,-6.519812 h -1.363621 l 3.025533,8.224338 -0.234372,0.639197 c -0.458091,1.246435 -1.022716,1.363621 -1.938898,1.129249 l -0.319599,1.107942 c 0.127839,0.06392 0.490051,0.149146 0.916183,0.149146 z m 15.096198,-2.897694 c 2.215884,0 3.707344,-1.68322 3.707344,-4.218702 0,-2.556789 -1.49146,-4.240008 -3.707344,-4.240008 -2.215883,0 -3.707344,1.683219 -3.707344,4.240008 0,2.535482 1.491461,4.218702 3.707344,4.218702 z m 0,-1.129249 c -1.683219,0 -2.450256,-1.448847 -2.450256,-3.089453 0,-1.640606 0.767037,-3.11076 2.450256,-3.11076 1.68322,0 2.450256,1.470154 2.450256,3.11076 0,1.640606 -0.767036,3.089453 -2.450256,3.089453 z M 102.42269,25.4 v -4.921819 c 0,-1.42754 0.88422,-2.23719 2.08804,-2.23719 1.16654,0 1.87498,0.76171 1.87498,2.045431 V 25.4 h 1.25709 v -5.198804 c 0,-2.088044 -1.11327,-3.089453 -2.76986,-3.089453 -1.23578,0 -2.00281,0.553971 -2.38633,1.384927 h -0.10654 V 17.218275 H 101.1656 V 25.4 Z"
     id="Buyon"
     style="fill:#ffffff;fill-rule:nonzero;stroke:none;stroke-width:1" />
  <g
     aria-label="Binance "
     id="text881"
     style="font-size:34.8307px;line-height:1.25;font-family:'Maven Pro';-inkscape-font-specification:'Maven Pro';letter-spacing:0px;word-spacing:0px;fill:#ffffff;fill-opacity:1;stroke-width:1">
    <path
       d="M 61.160723,53.740189 V 30.508384 h 7.704252 q 7.721259,0 7.721259,6.20762 0,0.969409 -0.255108,1.802761 -0.255108,0.833351 -0.629266,1.326559 -0.35715,0.493209 -0.714301,0.867366 -0.340144,0.357151 -0.629266,0.493209 l -0.2381,0.170071 q 0.170072,0.03401 0.408172,0.136058 0.255108,0.102043 0.935395,0.561237 0.680287,0.459193 1.173495,1.054445 0.510215,0.578244 0.918388,1.666703 0.425179,1.071452 0.425179,2.363998 0,6.581778 -8.418553,6.581778 z m 2.517063,-2.329984 h 6.088569 q 2.65312,0 4.183766,-0.918387 1.530646,-0.935395 1.530646,-3.469465 0,-1.071452 -0.374158,-1.836775 -0.357151,-0.78233 -0.884373,-1.207509 -0.527223,-0.442187 -1.360574,-0.66328 -0.833352,-0.238101 -1.547654,-0.30613 -0.714301,-0.06803 -1.649696,-0.06803 h -5.986526 z m 0,-10.833572 h 5.748426 q 2.125897,0 3.384428,-0.731309 1.275538,-0.731308 1.275538,-2.925234 0,-2.261955 -1.241524,-3.129321 -1.224516,-0.884373 -3.741579,-0.884373 h -5.425289 z"
       style="stroke-width:1"
       id="path883" />
    <path
       d="m 82.436703,33.263547 v -2.755163 h 2.77217 v 2.755163 z m 0.136058,20.476642 h 2.500055 V 36.358853 h -2.500055 z"
       style="stroke-width:1"
       id="path885" />
    <path
       d="M 90.583141,53.740189 V 37.753442 q 3.418443,-1.700718 7.347101,-1.700718 3.282388,0 5.085148,1.666703 1.81977,1.666704 1.81977,4.693981 v 11.326781 h -2.51707 V 42.413408 q 0,-0.731308 -0.15306,-1.292545 -0.15307,-0.578244 -0.59525,-1.224517 -0.44219,-0.646273 -1.42861,-0.986416 -0.986412,-0.357151 -2.483043,-0.357151 -2.193926,0 -4.574931,0.697294 v 14.490116 z"
       style="stroke-width:1"
       id="path887" />
    <path
       d="m 108.86586,48.416942 q 0,-1.190502 0.42518,-2.125897 0.44219,-0.952402 1.07145,-1.530646 0.62927,-0.595251 1.59868,-1.003424 0.96941,-0.425179 1.71772,-0.612258 0.74832,-0.204086 1.76875,-0.306129 1.03744,-0.102043 1.46261,-0.119051 0.44219,-0.01701 1.03744,-0.01701 l 2.78918,0.170072 q 0,-2.329983 -1.29255,-3.3164 -1.27553,-1.003423 -3.7926,-1.003423 -2.82319,0 -5.08514,0.833352 v -2.432027 q 2.56808,-0.90138 5.2212,-0.90138 3.65654,0 5.57836,1.853782 1.92181,1.836775 1.92181,5.391275 v 5.221204 q 0,1.666703 -0.78233,2.857206 -0.76533,1.173495 -1.98984,1.700718 -1.20751,0.527222 -2.27897,0.731308 -1.05444,0.204086 -2.09188,0.204086 -0.79934,0 -1.64969,-0.102043 -0.83336,-0.102043 -1.90481,-0.459193 -1.05444,-0.374158 -1.83677,-0.935395 -0.78233,-0.578244 -1.34357,-1.632689 -0.54423,-1.071452 -0.54423,-2.466041 z m 2.50005,0 q 0,3.265378 4.728,3.265378 0.017,0 0.051,0 4.62595,0 4.62595,-3.163335 v -3.350414 q -1.15648,-0.204086 -3.0953,-0.204086 -6.30967,0 -6.30967,3.452457 z"
       style="stroke-width:1"
       id="path889" />
    <path
       d="M 128.06696,53.740189 V 37.753442 q 3.41844,-1.700718 7.3471,-1.700718 3.28239,0 5.08515,1.666703 1.81977,1.666704 1.81977,4.693981 v 11.326781 h -2.51707 V 42.413408 q 0,-0.731308 -0.15306,-1.292545 -0.15307,-0.578244 -0.59525,-1.224517 -0.44219,-0.646273 -1.42861,-0.986416 -0.98641,-0.357151 -2.48304,-0.357151 -2.19393,0 -4.57493,0.697294 v 14.490116 z"
       style="stroke-width:1"
       id="path891" />
    <path
       d="m 146.41771,45.032514 q 0,-2.65312 0.73131,-4.506902 0.7313,-1.87079 1.97283,-2.789178 1.25853,-0.918387 2.56808,-1.292545 1.30955,-0.391165 2.87421,-0.391165 2.61911,0 5.15318,0.969409 v 2.398012 q -2.364,-0.969409 -4.88106,-0.969409 -3.09531,0 -4.5069,1.56466 -1.4116,1.564661 -1.4116,5.017118 0,3.486471 1.4116,5.034124 1.41159,1.547653 4.5069,1.547653 2.6191,0 4.88106,-0.969409 v 2.432027 q -2.43203,0.935394 -5.15318,0.935394 -1.22451,0 -2.29596,-0.204086 -1.05445,-0.204086 -2.17692,-0.816344 -1.10547,-0.612259 -1.8878,-1.564661 -0.78233,-0.969409 -1.29255,-2.602098 -0.4932,-1.632689 -0.4932,-3.7926 z"
       style="stroke-width:1"
       id="path893" />
    <path
       d="m 162.77861,45.270614 q 0,-0.03401 0,-0.11905 0,-0.08504 0,-0.136058 0,-8.962782 7.63622,-8.962782 1.59868,0 2.89123,0.510215 1.30955,0.493208 2.07487,1.173495 0.76532,0.680287 1.34357,1.785754 0.57824,1.088459 0.81634,1.853782 0.25511,0.765323 0.39117,1.853783 0.13605,1.054445 0.13605,1.32656 v 0.748315 l -0.068,1.224517 h -12.67035 q 0.2381,2.619106 1.59867,3.809608 1.36058,1.173495 4.0307,1.173495 3.79261,0 5.96952,-1.292545 v 2.585091 q -2.51706,1.207509 -6.10557,1.207509 -0.051,0 -0.10205,0 -1.53064,0 -2.80618,-0.35715 -1.27554,-0.374158 -2.51706,-1.275539 -1.22452,-0.90138 -1.92181,-2.704141 -0.6973,-1.819768 -0.6973,-4.404859 z m 2.55108,-0.969409 h 10.17029 q 0,-0.595251 -0.15306,-1.32656 -0.13606,-0.731309 -0.57825,-1.870789 -0.42518,-1.156489 -1.56466,-1.921812 -1.12247,-0.765323 -2.78918,-0.765323 -2.58509,0 -3.75858,1.343568 -1.15649,1.343567 -1.32656,4.540916 z"
       style="stroke-width:1"
       id="path895" />
  </g>
  <g
     id="g877"
     transform="matrix(0.3255752,0,0,0.3255752,60.285115,49.795312)"
     style="stroke-width:3.07149">
    <polygon
       fill="#f3ba2f"
       points="38.171,53.203 62.759,28.616 87.36,53.216 101.667,38.909 62.759,0 23.864,38.896 "
       id="polygon2"
       transform="translate(-145.34681,-113.66349)"
       style="stroke-width:9.43403" />
    <rect
       x="-138.77187"
       y="47.318943"
       transform="rotate(45)"
       fill="#f3ba2f"
       width="20.232805"
       height="20.233805"
       id="rect4"
       style="stroke-width:3.07146" />
    <polygon
       fill="#f3ba2f"
       points="101.667,87.703 62.759,126.611 23.863,87.716 23.843,87.696 38.171,73.408 62.759,97.995 87.359,73.396 101.674,87.695 "
       id="polygon6"
       transform="translate(-145.34681,-113.66349)"
       style="stroke-width:9.43403" />
    <rect
       x="-21.971783"
       y="49.238804"
       transform="rotate(135)"
       fill="#f3ba2f"
       width="20.233805"
       height="20.232805"
       id="rect8"
       style="stroke-width:3.07146" />
    <polygon
       fill="#f3ba2f"
       points="77.284,63.305 77.271,63.298 77.277,63.298 62.759,48.78 52.03,59.509 52.029,59.509 50.797,60.742 48.254,63.285 48.234,63.305 48.254,63.326 62.759,77.831 77.277,63.313 "
       id="polygon10"
       transform="translate(-145.34681,-113.66349)"
       style="stroke-width:9.43403" />
  </g>
</svg>
