<?xml version="1.0" encoding="UTF-8" standalone="no"?>
<svg
   xmlns:dc="http://purl.org/dc/elements/1.1/"
   xmlns:cc="http://creativecommons.org/ns#"
   xmlns:rdf="http://www.w3.org/1999/02/22-rdf-syntax-ns#"
   xmlns:svg="http://www.w3.org/2000/svg"
   xmlns="http://www.w3.org/2000/svg"
   xmlns:xlink="http://www.w3.org/1999/xlink"
   xmlns:sodipodi="http://sodipodi.sourceforge.net/DTD/sodipodi-0.dtd"
   xmlns:inkscape="http://www.inkscape.org/namespaces/inkscape"
   width="211px"
   height="67px"
   viewBox="0 0 211 67"
   version="1.1"
   id="svg21"
   sodipodi:docname="img-buy-on-pancakeswap.svg"
   inkscape:version="1.0.2 (1.0.2+r75+1)">
  <metadata
     id="metadata25">
    <rdf:RDF>
      <cc:Work
         rdf:about="">
        <dc:format>image/svg+xml</dc:format>
        <dc:type
           rdf:resource="http://purl.org/dc/dcmitype/StillImage" />
      </cc:Work>
    </rdf:RDF>
  </metadata>
  <sodipodi:namedview
     pagecolor="#ffffff"
     bordercolor="#666666"
     borderopacity="1"
     objecttolerance="10"
     gridtolerance="10"
     guidetolerance="10"
     inkscape:pageopacity="0"
     inkscape:pageshadow="2"
     inkscape:window-width="1920"
     inkscape:window-height="1025"
     id="namedview23"
     showgrid="false"
     inkscape:zoom="2.1062399"
     inkscape:cx="228.24533"
     inkscape:cy="36.264026"
     inkscape:window-x="0"
     inkscape:window-y="27"
     inkscape:window-maximized="1"
     inkscape:current-layer="svg21"
     inkscape:document-rotation="0" />
  <title
     id="title2">BittrexButton</title>
  <defs
     id="defs9">
    <linearGradient
       x1="29.7357383%"
       y1="48.4386243%"
       x2="86.1631498%"
       y2="52.0688999%"
       id="linearGradient-1">
      <stop
         stop-color="#6DFF86"
         offset="0%"
         id="stop4" />
      <stop
         stop-color="#91AFFF"
         offset="100%"
         id="stop6" />
    </linearGradient>
    <linearGradient
       inkscape:collect="always"
       xlink:href="#linearGradient-1"
       id="linearGradient850"
       x1="34.446827"
       y1="55.242304"
       x2="100.87797"
       y2="59.516172"
       gradientTransform="scale(1.7837652,0.56061191)"
       gradientUnits="userSpaceOnUse" />
    <linearGradient
       inkscape:collect="always"
       xlink:href="#linearGradient-1"
       id="linearGradient852"
       x1="34.446827"
       y1="55.242304"
       x2="100.87797"
       y2="59.516172"
       gradientTransform="scale(1.7837652,0.56061191)"
       gradientUnits="userSpaceOnUse" />
    <linearGradient
       inkscape:collect="always"
       xlink:href="#linearGradient-1"
       id="linearGradient854"
       x1="34.446827"
       y1="55.242304"
       x2="100.87797"
       y2="59.516172"
       gradientTransform="scale(1.7837652,0.56061191)"
       gradientUnits="userSpaceOnUse" />
  </defs>
  <g
     id="Group-25"
     fill="#000001"
     fill-opacity="0.6"
     stroke="url(#linearGradient-1)"
     stroke-width="2"
     style="fill-rule:evenodd;stroke:url(#linearGradient854)"
     transform="translate(1.3968,1.4)">
    <g
       id="Group-32"
       style="stroke:url(#linearGradient852)">
      <path
         d="m 13.356423,63.996654 c -0.537997,0 -1.061882,-0.0067 -1.594587,-0.01841 C 10.77404,63.953153 9.6045591,63.899613 8.4633011,63.705532 7.3873082,63.521489 6.4312621,63.220328 5.5422451,62.788665 4.6214775,62.346962 3.7941977,61.774757 3.0780451,61.08878 2.3477811,60.407822 1.7462835,59.62815 1.27708,58.751438 0.82022405,57.906515 0.50800973,56.999686 0.31927001,55.979086 0.10407144,54.85308 0.04938984,53.712015 0.02645884,52.841995 0.01411138,52.488968 0,51.314441 0,51.314441 V 12.663808 c 0,0 0.0158753,-1.156122 0.02645884,-1.495764 0.022931,-0.876713 0.0776126,-2.0177773 0.29104725,-3.132072 C 0.50624581,7.0086793 0.81846013,6.1018509 1.27708,5.2552546 1.7445195,4.3768692 2.3460172,3.5921782 3.0674616,2.9162397 3.7959616,2.22357 4.6267692,1.6496915 5.5404812,1.2046429 6.4471374,0.76795984 7.4014196,0.47014535 8.4562454,0.29446826 9.6451293,0.09369445 10.848125,0.04182788 11.765364,0.02007738 L 13.356423,0 H 194.63123 l 1.61046,0.0217505 c 0.90489,0.02007738 2.10965,0.07194395 3.27913,0.27104465 1.06188,0.1773502 2.02499,0.47683781 2.94752,0.91686705 0.90489,0.4400293 1.73217,1.0139078 2.45361,1.699885 0.72498,0.6792848 1.32647,1.4689951 1.80626,2.3490537 0.45509,0.8549618 0.76378,1.7617902 0.94546,2.7589668 0.20285,1.0557357 0.26636,2.1399143 0.30516,3.1571683 0.005,0.473492 0.005,0.983792 0.005,1.489072 C 208,13.291227 208,13.888529 208,14.49085 v 35.016627 c 0,0.60734 0,1.201296 -0.0159,1.798598 0,0.543763 0,1.042351 -0.007,1.555998 -0.037,0.985464 -0.10055,2.06797 -0.30163,3.100282 -0.18345,1.025619 -0.49214,1.932448 -0.95252,2.794102 -0.4745,0.87002 -1.07952,1.654711 -1.79038,2.318938 -0.73027,0.699362 -1.55754,1.269894 -2.46773,1.709923 -0.91724,0.441703 -1.85035,0.734498 -2.94399,0.920214 -1.12891,0.194081 -2.29839,0.247621 -3.29677,0.272717 -0.51506,0.01171 -1.05835,0.01841 -1.584,0.01841 L 192.72796,64 13.356423,63.996654"
         id="Fill-4-Copy"
         style="stroke:url(#linearGradient850)" />
    </g>
  </g>
  <path
     d="m 65.25737,27.4 c 2.578096,0 3.643425,-1.257088 3.643425,-2.897694 0,-1.725833 -1.193168,-2.663322 -2.194578,-2.727242 v -0.106532 c 0.93749,-0.255679 1.768446,-0.87357 1.768446,-2.279804 0,-1.597993 -1.065329,-2.897694 -3.345132,-2.897694 H 61.315654 V 27.4 Z m -0.170452,-6.114987 h -2.450256 v -3.622117 h 2.492869 c 1.448847,0 2.088044,0.767036 2.088044,1.725832 0,1.150555 -0.937489,1.896285 -2.130657,1.896285 z m 0.170452,4.943125 h -2.620708 v -3.79257 h 2.684628 c 1.427541,0 2.322417,0.958796 2.322417,2.066738 0,0.958796 -0.660504,1.725832 -2.386337,1.725832 z m 8.29387,1.278395 c 1.235781,0 2.045431,-0.660504 2.428949,-1.49146 h 0.08523 V 27.4 h 1.257088 v -8.181725 h -1.257088 v 4.836593 c 0,1.534073 -1.171861,2.23719 -2.109351,2.23719 -1.044022,0 -1.789752,-0.767037 -1.789752,-1.960205 v -5.113578 h -1.257088 v 5.198805 c 0,2.088044 1.107942,3.089453 2.642016,3.089453 z m 6.887623,2.961614 c 1.134575,0 1.933571,-0.601911 2.407643,-1.874979 l 3.472971,-9.374893 h -1.36362 l -2.258497,6.519812 h -0.08523 l -2.258493,-6.519812 h -1.363621 l 3.025533,8.224338 -0.234372,0.639197 c -0.458091,1.246435 -1.022716,1.363621 -1.938898,1.129249 l -0.319599,1.107942 c 0.127839,0.06392 0.490051,0.149146 0.916183,0.149146 z m 15.096198,-2.897694 c 2.215884,0 3.707344,-1.68322 3.707344,-4.218702 0,-2.556789 -1.49146,-4.240008 -3.707344,-4.240008 -2.215883,0 -3.707344,1.683219 -3.707344,4.240008 0,2.535482 1.491461,4.218702 3.707344,4.218702 z m 0,-1.129249 c -1.683219,0 -2.450256,-1.448847 -2.450256,-3.089453 0,-1.640606 0.767037,-3.11076 2.450256,-3.11076 1.68322,0 2.450256,1.470154 2.450256,3.11076 0,1.640606 -0.767036,3.089453 -2.450256,3.089453 z M 102.42269,27.4 v -4.921819 c 0,-1.42754 0.88422,-2.23719 2.08804,-2.23719 1.16654,0 1.87498,0.76171 1.87498,2.045431 V 27.4 h 1.25709 v -5.198804 c 0,-2.088044 -1.11327,-3.089453 -2.76986,-3.089453 -1.23578,0 -2.00281,0.553971 -2.38633,1.384927 h -0.10654 V 19.218275 H 101.1656 V 27.4 Z"
     id="Buyon"
     style="fill:#ffffff;fill-rule:nonzero;stroke:none;stroke-width:1" />
  <g
     id="g877"
     transform="matrix(1.3003785,0,0,1.3003785,59.590581,94.518823)"
     style="stroke-width:0.769007">
    <path
       class="st0"
       d="m -30.293198,-58.000795 c -0.5,-2.6 1.5,-5 4.1,-5 2.3,0 4.2,1.9 4.2,4.2 v 5.2 c 0.6,0 1.2,-0.1 1.8,-0.1 0.6,0 1.1,0 1.7,0.1 v -5.2 c 0,-2.3 1.9,-4.2 4.2,-4.2 2.6,0 4.6,2.4 4.2,5 l -1.1,6.1 c 3.9,1.7 6.9,4.7 6.9,8.4 v 2.3 c 0,3.1 -2,5.7 -4.9,7.4 -2.9,1.8 -6.7,2.8 -11,2.8 -4.3,0 -8.1,-1 -11,-2.8 -2.8,-1.7 -4.8,-4.3 -4.8,-7.4 v -2.3 c 0,-3.7 2.9,-6.7 6.8,-8.4 z m 17.6,6.9 1.3,-7.2 c 0.3,-1.8 -1,-3.5 -2.9,-3.5 -1.6,0 -2.9,1.3 -2.9,2.9 v 6.6 c -0.4,-0.1 -0.9,-0.1 -1.3,-0.1 -0.6,0 -1.1,-0.1 -1.7,-0.1 -0.6,0 -1.2,0 -1.8,0.1 -0.4,0 -0.9,0.1 -1.3,0.1 v -6.5 c 0,-1.6 -1.3,-2.9 -2.9,-2.9 -1.8,0 -3.2,1.7 -2.8,3.5 l 1.3,7.2 c -4.2,1.6 -7,4.4 -7,7.6 v 2.3 c 0,4.9 6.5,8.9 14.5,8.9 8,0 14.5,-4 14.5,-8.9 v -2.3 c 0.1,-3.3 -2.7,-6.1 -7,-7.7 z"
       id="path4"
       style="clip-rule:evenodd;fill:#633001;fill-rule:evenodd;stroke-width:0.769007" />
    <path
       class="st1"
       d="m -5.593198,-41.200795 c 0,4.9 -6.5,8.9 -14.5,8.9 -8,0 -14.5,-4 -14.5,-8.9 v -2.3 h 29.1 v 2.3 z"
       id="path6"
       style="fill:#fedc90;stroke-width:0.769007" />
    <path
       class="st2"
       d="m -28.993198,-58.200795 c -0.4,-1.8 1,-3.5 2.8,-3.5 1.6,0 2.9,1.3 2.9,2.9 v 6.6 c 1,-0.1 2,-0.2 3.1,-0.2 1,0 2,0.1 3,0.2 v -6.6 c 0,-1.6 1.3,-2.9 2.9,-2.9 1.8,0 3.2,1.7 2.9,3.5 l -1.3,7.2 c 4.2,1.6 7.1,4.4 7.1,7.6 0,4.9 -6.5,8.9 -14.5,8.9 -8,0 -14.5,-4 -14.5,-8.9 0,-3.2 2.8,-6 7,-7.6 z"
       id="path8"
       style="clip-rule:evenodd;fill:#d1884f;fill-rule:evenodd;stroke-width:0.769007" />
    <path
       class="st3"
       d="m -24.193198,-44.100795 c 0,1.3 -0.7,2.4 -1.6,2.4 -0.9,0 -1.6,-1.1 -1.6,-2.4 0,-1.3 0.7,-2.4 1.6,-2.4 0.9,0 1.6,1.1 1.6,2.4 z"
       id="path10"
       style="fill:#633001;stroke-width:0.769007" />
    <path
       class="st3"
       d="m -13.093198,-44.100795 c 0,1.3 -0.7,2.4 -1.6,2.4 -0.9,0 -1.6,-1.1 -1.6,-2.4 0,-1.3 0.7,-2.4 1.6,-2.4 0.9,0 1.6,1.1 1.6,2.4 z"
       id="path12"
       style="fill:#633001;stroke-width:0.769007" />
  </g>
  <g
     aria-label="PancakeSwap"
     id="text881"
     style="font-size:21.5575px;line-height:1.25;font-family:'Maven Pro';-inkscape-font-specification:'Maven Pro';letter-spacing:0px;word-spacing:0px;fill:#ffffff;fill-opacity:1;stroke-width:1">
    <path
       d="M 61.160718,45.334774 V 30.956089 h 5.368323 q 2.547322,0 3.936771,1.263135 1.389448,1.263135 1.389448,3.568356 0,2.305221 -1.389448,3.568356 -1.389449,1.252609 -3.936771,1.252609 h -2.778896 v 4.726229 z m 2.589427,-7.073555 h 2.589426 q 1.705232,0 2.326273,-0.621041 0.621042,-0.631568 0.621042,-1.852598 0,-1.210504 -0.631568,-1.821019 -0.621041,-0.621042 -2.315747,-0.621042 h -2.589426 z"
       style="font-weight:bold;fill:#ffffff;fill-opacity:1;stroke-width:1"
       id="path883" />
    <path
       d="m 73.486809,41.819049 q 0,-0.32631 0.06316,-0.663146 0.06316,-0.347362 0.32631,-0.863142 0.273679,-0.51578 0.736829,-0.905247 0.463149,-0.389466 1.368396,-0.663146 0.905246,-0.284205 2.136803,-0.284205 0.884194,0 1.894702,0.147366 0,-2.031542 -2.284169,-2.031542 -1.810493,0 -3.147311,0.547358 v -2.094698 q 1.484184,-0.599989 3.294677,-0.599989 2.305221,0 3.526251,1.178926 1.221031,1.168399 1.221031,3.389411 v 2.905211 q 0,1.484183 -1.11577,2.557848 -1.105242,1.063138 -3.410464,1.063138 -2.368377,0 -3.494673,-1.073665 -1.115769,-1.073664 -1.115769,-2.610478 z m 2.557848,-0.32631 q 0,1.726284 2.031542,1.726284 0.01053,0 0.02105,0 1.936807,0 1.936807,-1.631549 v -1.35787 q -0.905246,-0.126313 -1.54734,-0.136839 -2.431534,0 -2.442061,1.399974 z"
       style="font-weight:bold;fill:#ffffff;fill-opacity:1;stroke-width:1"
       id="path885" />
    <path
       d="m 85.581326,45.334774 v -9.74719 q 2.368377,-1.178926 4.936751,-1.178926 2.242065,0 3.5052,1.178926 1.263134,1.168399 1.263134,3.28415 v 6.46304 h -2.568374 v -6.684088 q 0,-0.431571 -0.08421,-0.715777 -0.07368,-0.294731 -0.315783,-0.610515 -0.231575,-0.315784 -0.768407,-0.473675 -0.536833,-0.157892 -1.378923,-0.157892 -0.947351,0 -1.999963,0.18947 v 8.452477 z"
       style="font-weight:bold;fill:#ffffff;fill-opacity:1;stroke-width:1"
       id="path887" />
    <path
       d="m 97.823207,39.966451 q 0,-2.694688 1.315766,-4.12624 1.315767,-1.431553 3.768347,-1.431553 1.57892,0 3.10521,0.599989 v 2.157855 q -1.27366,-0.51578 -2.67363,-0.51578 -1.48419,0 -2.21049,0.684198 -0.71578,0.673672 -0.71578,2.631531 0,1.936807 0.71578,2.631531 0.7263,0.684198 2.21049,0.684198 1.33681,0 2.67363,-0.536832 v 2.157855 q -1.52629,0.599989 -3.10521,0.599989 -2.45258,0 -3.768347,-1.431553 -1.315766,-1.431553 -1.315766,-4.105188 z"
       style="font-weight:bold;fill:#ffffff;fill-opacity:1;stroke-width:1"
       id="path889" />
    <path
       d="m 108.01249,41.819049 q 0,-0.32631 0.0632,-0.663146 0.0632,-0.347362 0.32631,-0.863142 0.27368,-0.51578 0.73683,-0.905247 0.46315,-0.389466 1.3684,-0.663146 0.90524,-0.284205 2.1368,-0.284205 0.88419,0 1.8947,0.147366 0,-2.031542 -2.28417,-2.031542 -1.81049,0 -3.14731,0.547358 v -2.094698 q 1.48418,-0.599989 3.29468,-0.599989 2.30522,0 3.52625,1.178926 1.22103,1.168399 1.22103,3.389411 v 2.905211 q 0,1.484183 -1.11577,2.557848 -1.10524,1.063138 -3.41046,1.063138 -2.36838,0 -3.49468,-1.073665 -1.11577,-1.073664 -1.11577,-2.610478 z m 2.55785,-0.32631 q 0,1.726284 2.03154,1.726284 0.0105,0 0.0211,0 1.9368,0 1.9368,-1.631549 v -1.35787 q -0.90524,-0.126313 -1.54734,-0.136839 -2.43153,0 -2.44206,1.399974 z"
       style="font-weight:bold;fill:#ffffff;fill-opacity:1;stroke-width:1"
       id="path891" />
    <path
       d="M 120.06491,45.334774 V 30.545571 h 2.58942 v 7.978801 l 3.62099,-3.947296 h 3.43152 l -4.68413,4.789386 5.17885,5.968312 h -3.27362 l -3.55783,-4.242028 -0.71578,0.726303 v 3.515725 z"
       style="font-weight:bold;fill:#ffffff;fill-opacity:1;stroke-width:1"
       id="path893" />
    <path
       d="m 131.35943,40.071712 q 0,-2.589426 1.14735,-4.136766 1.15787,-1.54734 3.66309,-1.54734 2.36838,0 3.57888,1.505235 1.22103,1.505236 1.22103,3.705196 0,0.905246 -0.0421,1.336817 h -6.91566 q 0.10526,1.399975 0.83156,1.87365 0.73683,0.473676 1.90523,0.473676 1.8947,0 3.66309,-0.831564 v 2.084173 q -1.78944,0.968403 -4.05256,0.968403 -0.71577,0 -1.34734,-0.115787 -0.63157,-0.115788 -1.32629,-0.484202 -0.6842,-0.368414 -1.18945,-0.936825 -0.49473,-0.568411 -0.82104,-1.568392 -0.31579,-1.010508 -0.31579,-2.326274 z m 2.65259,-0.926299 h 4.33676 q -0.10526,-1.115769 -0.66315,-1.884176 -0.54735,-0.768407 -1.51576,-0.768407 -0.9684,0 -1.51576,0.631568 -0.53683,0.621041 -0.64209,2.021015 z"
       style="font-weight:bold;fill:#ffffff;fill-opacity:1;stroke-width:1"
       id="path895" />
    <path
       d="m 143.35921,34.966542 q 0,-2.073646 1.46314,-3.126258 1.46313,-1.052613 3.66309,-1.052613 1.9368,0 3.86308,0.989456 v 2.515744 q -1.66312,-1.094717 -3.55783,-1.094717 -1.18945,0 -2.02101,0.410518 -0.82104,0.410519 -0.82104,1.294714 0,0.715776 0.74736,1.126295 0.75788,0.399993 1.82102,0.684198 1.07366,0.273679 2.14732,0.694724 1.0842,0.421045 1.83155,1.463131 0.75788,1.03156 0.75788,2.673636 0,1.747336 -1.44208,2.852579 -1.44208,1.105243 -3.51572,1.105243 -2.7368,0 -4.74728,-1.22103 v -2.631531 q 1.85259,1.378922 4.14729,1.378922 2.96836,0 2.96836,-1.652601 0,-0.747355 -0.53683,-1.242083 -0.53683,-0.494728 -1.35787,-0.726302 -0.82104,-0.242101 -1.75786,-0.557885 -0.93683,-0.32631 -1.75786,-0.70525 -0.82104,-0.378941 -1.35787,-1.178926 -0.53684,-0.810512 -0.53684,-1.999964 z"
       style="font-weight:bold;fill:#ffffff;fill-opacity:1;stroke-width:1"
       id="path897" />
    <path
       d="m 154.99059,34.577076 h 2.73679 l 2.28417,7.757753 2.05259,-7.757753 h 2.22101 l 2.04207,7.757753 2.28417,-7.757753 h 2.73679 l -3.81046,10.757698 h -2.58942 l -1.76839,-6.189361 -1.78944,6.189361 h -2.58943 z"
       style="font-weight:bold;fill:#ffffff;fill-opacity:1;stroke-width:1"
       id="path899" />
    <path
       d="m 172.81131,41.819049 q 0,-0.32631 0.0632,-0.663146 0.0632,-0.347362 0.32631,-0.863142 0.27368,-0.51578 0.73683,-0.905247 0.46315,-0.389466 1.36839,-0.663146 0.90525,-0.284205 2.13681,-0.284205 0.88419,0 1.8947,0.147366 0,-2.031542 -2.28417,-2.031542 -1.81049,0 -3.14731,0.547358 v -2.094698 q 1.48418,-0.599989 3.29467,-0.599989 2.30523,0 3.52626,1.178926 1.22103,1.168399 1.22103,3.389411 v 2.905211 q 0,1.484183 -1.11577,2.557848 -1.10525,1.063138 -3.41047,1.063138 -2.36837,0 -3.49467,-1.073665 -1.11577,-1.073664 -1.11577,-2.610478 z m 2.55785,-0.32631 q 0,1.726284 2.03154,1.726284 0.0105,0 0.0211,0 1.93681,0 1.93681,-1.631549 v -1.35787 q -0.90525,-0.126313 -1.54734,-0.136839 -2.43153,0 -2.44206,1.399974 z"
       style="font-weight:bold;fill:#ffffff;fill-opacity:1;stroke-width:1"
       id="path901" />
    <path
       d="M 184.73741,49.324175 V 38.050697 q 0,-1.484184 1.10525,-2.547322 1.11577,-1.073665 3.42099,-1.073665 0.53683,0 1.06313,0.08421 0.53684,0.08421 1.25261,0.442097 0.72631,0.357888 1.24209,0.926299 0.51578,0.568411 0.89472,1.673654 0.37894,1.094717 0.37894,2.536796 0,2.63153 -1.29472,4.042031 -1.29471,1.4105 -3.70519,1.4105 -0.90525,0 -1.76839,-0.18947 v 3.968349 z m 2.58943,-5.905155 q 0.89472,0.126313 1.58944,0.126313 1.25261,0 1.90523,-0.726302 0.66315,-0.736829 0.66315,-2.589427 0,-1.894702 -0.49473,-2.736792 -0.49473,-0.84209 -1.72628,-0.84209 -1.93681,0 -1.93681,1.157874 z"
       style="font-weight:bold;fill:#ffffff;fill-opacity:1;stroke-width:1"
       id="path903" />
  </g>
</svg>
